<svg width="144" height="144" viewBox="0 0 144 144" fill="none" xmlns="http://www.w3.org/2000/svg">
<path d="M84.3752 11.2291C84.3752 11.2291 72.9168 24.0104 74.5939 36.6354L75.6356 36.4791C75.6356 36.4791 78.2606 22.2291 90.3439 13.0625L84.3752 11.2291Z" fill="#2BA041"/>
<path d="M55.6877 21.3021C62.3022 22.1771 69.5835 19.8854 75.5939 26.0208C70.8335 25.1042 67.2606 26.9167 63.5522 28.6875C59.6981 30.5417 55.9689 30.0417 52.4168 27.7188C47.3856 24.4479 42.3335 21.2083 37.2085 17.8958C43.6564 18.9063 49.271 15.625 55.2085 13.8542C64.5002 11.0729 75.1772 16.0313 78.771 25C75.2085 22.4896 71.771 20.25 67.5731 20.3646C63.6043 20.4583 59.646 20.9688 55.6877 21.3021Z" fill="#2BA041"/>
<path d="M84.604 115.51C81.813 117.755 78.6651 119.516 75.2915 120.719C71.7709 121.934 68.0783 122.578 64.354 122.625C58.4615 122.636 52.647 121.278 47.3687 118.659C42.0904 116.04 37.4925 112.23 33.9373 107.531L33.0103 106.344L32.1873 105.073C31.6457 104.229 31.1457 103.375 30.6144 102.5C29.6595 100.708 28.8277 98.8529 28.1248 96.9479C25.2991 89.2113 24.8917 80.7986 26.9567 72.8252C29.0216 64.8518 33.4614 57.6944 39.6873 52.302L42.0519 50.375L44.5832 48.6875C45.4188 48.1214 46.2963 47.62 47.2082 47.1875C48.1144 46.7395 48.979 46.2395 49.9165 45.8645C53.5884 44.2767 57.4799 43.2547 61.4582 42.8333C62.4998 42.75 63.4269 42.6562 64.4165 42.6041L67.3644 42.677C68.3442 42.7151 69.3213 42.8055 70.2915 42.9479L71.7394 43.125L73.1665 43.4375C75.0483 43.8401 76.9 44.3726 78.7082 45.0312L81.3332 46.177C82.1957 46.5743 83.0371 47.0159 83.854 47.5C87.0902 49.3407 90.0036 51.6982 92.479 54.4791C94.847 57.1606 96.742 60.2251 98.0832 63.5416C95.5928 61.253 92.8616 59.2412 89.9373 57.5416L87.7811 56.4062C87.0519 56.0625 86.3019 55.7604 85.5728 55.4479C84.8412 55.1404 84.0936 54.8727 83.3332 54.6458L82.2915 54.2708C81.9165 54.1562 81.5207 54.0729 81.1457 53.9791C78.2057 53.1636 75.1652 52.7673 72.1144 52.802C69.1803 52.7812 66.2572 53.1632 63.4269 53.9375C62.7217 54.1122 62.0263 54.3243 61.3436 54.5729L60.3019 54.9166C59.979 55.0416 59.6561 55.1979 59.3228 55.3437C58.6769 55.6562 57.9998 55.8645 57.3748 56.1979L55.4998 57.2395C54.8853 57.5729 54.3228 58.0104 53.729 58.3854L52.854 58.9583C52.565 59.1586 52.2868 59.3742 52.0207 59.6041L50.3853 60.8958L48.8957 62.3437C46.9415 64.281 45.2689 66.4831 43.9269 68.8854C42.5335 71.2474 41.498 73.803 40.854 76.4687C40.113 79.1048 39.762 81.8351 39.8123 84.5729V85.6145L39.9061 86.6562C39.979 87.3333 39.9894 88.0312 40.104 88.7395C40.3266 90.0794 40.6292 91.4046 41.0103 92.7083C41.3744 94.0539 41.8303 95.373 42.3748 96.6562C42.6561 97.2916 42.9998 97.8958 43.2915 98.5416L43.7498 99.5L44.3019 100.396C44.6769 100.979 45.0207 101.604 45.4269 102.187C45.8332 102.771 46.2915 103.302 46.7082 103.885C47.1266 104.463 47.5861 105.009 48.0832 105.521C48.5428 106.076 49.0442 106.595 49.5832 107.073C53.9187 111.233 59.2708 114.182 65.104 115.625L67.3957 116.156C68.1665 116.292 68.9478 116.365 69.7394 116.49C70.1353 116.542 70.5311 116.625 70.9269 116.646H72.1353C72.9269 116.646 73.7603 116.781 74.5728 116.729L77.0832 116.667C77.9165 116.667 78.729 116.479 79.5728 116.396C81.2498 116.323 82.8436 115.792 84.604 115.51Z" fill="#FE4400"/>
<path d="M28.7812 107.813C29.5521 108.729 30.3021 109.635 31.0313 110.542C31.4063 110.979 31.7396 111.458 32.1354 111.875L33.3333 113.104C34.1667 113.917 34.8854 114.792 35.7604 115.531L38.375 117.708C38.7914 118.09 39.2372 118.438 39.7083 118.75L41.0729 119.729L42.4271 120.698C42.875 121.021 43.3854 121.271 43.8542 121.552C44.8229 122.094 45.75 122.688 46.7083 123.208L49.6771 124.594C57.4665 128.043 66.0392 129.338 74.5 128.344C75.5275 128.257 76.5474 128.097 77.5521 127.865C78.5658 127.709 79.568 127.487 80.5521 127.198C81.5313 126.896 82.5104 126.625 83.4896 126.354C84.4688 126.083 85.3854 125.604 86.3438 125.25L87.75 124.698L89.1042 123.99C90 123.5 90.9271 123.083 91.8021 122.594C93.5377 121.568 95.2045 120.43 96.7917 119.188L97.9792 118.26L98.5729 117.802L99.1146 117.281L101.313 115.198C102.021 114.51 102.635 113.708 103.302 112.969L104.344 111.854L105.208 110.625C107.627 107.456 109.561 103.946 110.948 100.208C112.428 96.5033 113.355 92.6003 113.698 88.6251C114.127 84.6452 113.976 80.6241 113.25 76.6876L112.677 73.7292L111.802 70.8438C111.646 70.3646 111.542 69.8646 111.344 69.3959L110.76 67.9896C110.365 67.0626 110.062 66.0834 109.594 65.1771L108.135 62.5001C107.667 61.5938 107.094 60.7813 106.521 59.9063C106.25 59.4688 105.99 59.0209 105.698 58.5938L104.76 57.3751L103.833 56.1459L103.365 55.5313L102.833 54.9688C100.106 51.7969 96.9512 49.0203 93.4583 46.7188L92.1354 45.8334L91.4687 45.3959L90.7708 45.0209L87.9479 43.5L85 42.198C84.0208 41.7292 82.9687 41.4792 81.9479 41.0938C81.4375 40.9167 80.9063 40.7084 80.3958 40.5521L78.8125 40.1459C77.7708 39.8959 76.7292 39.5521 75.5938 39.4063C74.4583 39.2605 73.4167 39 72.3021 38.8542L68.9583 38.5417C64.3555 38.3259 59.743 38.6299 55.2083 39.448C59.4336 37.1094 64.0049 35.4602 68.75 34.5626C73.6353 33.6712 78.6306 33.5552 83.5521 34.2188L85.4167 34.4896C86.0413 34.5705 86.6604 34.6888 87.2708 34.8438L90.9583 35.7396C93.3953 36.4827 95.7763 37.3982 98.0833 38.4792L99.8437 39.2813L101.51 40.2396L103.187 41.2084L104.021 41.698L104.813 42.2501L107.938 44.5105C108.979 45.3438 109.906 46.198 110.885 47.0626C114.745 50.6199 118.056 54.7307 120.708 59.2605C121.396 60.3751 121.927 61.5834 122.542 62.7501L123.417 64.5313C123.708 65.1251 123.906 65.7605 124.146 66.3751L125.521 70.1042L126.562 73.9584C128.368 81.7902 128.395 89.9272 126.641 97.7708C124.887 105.614 121.397 112.965 116.427 119.281L115.146 120.833L113.771 122.292C112.844 123.25 111.979 124.271 110.99 125.167L107.979 127.792L107.219 128.438L106.406 129.01L104.76 130.208C102.581 131.715 100.301 133.073 97.9375 134.271C96.75 134.844 95.5208 135.313 94.3021 135.844L92.4792 136.583L90.5833 137.167C85.5849 138.775 80.3654 139.59 75.1146 139.583C73.8125 139.583 72.5104 139.583 71.2188 139.5L67.3646 139.021C66.0863 138.865 64.8196 138.625 63.5729 138.302C62.312 138.036 61.0697 137.688 59.8542 137.26L56.25 136.083C55.0729 135.583 53.9167 135.042 52.7708 134.51C51.6212 133.988 50.5076 133.389 49.4375 132.719L47.8021 131.76C47.2565 131.452 46.7343 131.104 46.2396 130.719L43.2292 128.49C42.2708 127.688 41.3646 126.833 40.4583 125.99C40.0104 125.563 39.5312 125.177 39.1146 124.719L37.8854 123.333L36.6667 121.948C36.2511 121.499 35.8715 121.019 35.5313 120.51C32.6207 116.663 30.3421 112.377 28.7812 107.813V107.813Z" fill="#FE4400"/>
<path d="M79.6042 96.3333L78.9583 86.302C66.1458 84.8541 58.2396 92 51.1875 101.927C51.8958 85 60.25 76.2083 78.9375 71.9791L79.6042 63.2916L103.385 79.802L79.6042 96.3333Z" fill="#E1E1E6"/>
</svg>
