<svg width="166" height="60" viewBox="0 0 166 60" fill="none" xmlns="http://www.w3.org/2000/svg">
<path d="M33.7501 4.4917C33.7501 4.4917 29.1667 9.6042 29.8376 14.6542L30.2542 14.5917C30.2542 14.5917 31.3042 8.8917 36.1376 5.22503L33.7501 4.4917Z" fill="#2BA041"/>
<path d="M22.275 8.52082C24.9208 8.87082 27.8333 7.95415 30.2375 10.4083C28.3333 10.0416 26.9041 10.7666 25.4208 11.475C23.8791 12.2166 22.3875 12.0166 20.9666 11.0875C18.9541 9.77915 16.9333 8.48332 14.8833 7.15832C17.4625 7.56248 19.7083 6.24998 22.0833 5.54165C25.8 4.42915 30.0708 6.41248 31.5083 9.99998C30.0833 8.99582 28.7083 8.09998 27.0291 8.14581C25.4416 8.18331 23.8583 8.38748 22.275 8.52082Z" fill="#2BA041"/>
<path d="M33.8416 46.2041C32.7252 47.102 31.466 47.8062 30.1166 48.2875C28.7084 48.7737 27.2313 49.0311 25.7416 49.05C23.3846 49.0543 21.0588 48.5113 18.9475 47.4636C16.8362 46.4159 14.997 44.8921 13.5749 43.0125L13.2041 42.5375L12.8749 42.0291C12.6583 41.6916 12.4583 41.35 12.2458 41C11.8638 40.2831 11.5311 39.5411 11.2499 38.7791C10.1196 35.6845 9.95668 32.3194 10.7827 29.13C11.6087 25.9407 13.3846 23.0777 15.8749 20.9208L16.8208 20.15L17.8333 19.475C18.1675 19.2485 18.5185 19.048 18.8833 18.875C19.2458 18.6958 19.5916 18.4958 19.9666 18.3458C21.4354 17.7107 22.992 17.3018 24.5833 17.1333C24.9999 17.1 25.3708 17.0625 25.7666 17.0416L26.9458 17.0708C27.3377 17.086 27.7285 17.1222 28.1166 17.1791L28.6958 17.25L29.2666 17.375C30.0193 17.536 30.76 17.749 31.4833 18.0125L32.5333 18.4708C32.8783 18.6297 33.2148 18.8063 33.5416 19C34.8361 19.7363 36.0014 20.6793 36.9916 21.7916C37.9388 22.8642 38.6968 24.09 39.2333 25.4166C38.2371 24.5012 37.1446 23.6965 35.9749 23.0166L35.1124 22.5625C34.8208 22.425 34.5208 22.3041 34.2291 22.1791C33.9365 22.0561 33.6374 21.949 33.3333 21.8583L32.9166 21.7083C32.7666 21.6625 32.6083 21.6291 32.4583 21.5916C31.2823 21.2654 30.0661 21.1069 28.8458 21.1208C27.6721 21.1125 26.5029 21.2653 25.3708 21.575C25.0887 21.6448 24.8105 21.7297 24.5374 21.8291L24.1208 21.9666C23.9916 22.0166 23.8624 22.0791 23.7291 22.1375C23.4708 22.2625 23.1999 22.3458 22.9499 22.4791L22.1999 22.8958C21.9541 23.0291 21.7291 23.2041 21.4916 23.3541L21.1416 23.5833C21.026 23.6634 20.9147 23.7497 20.8083 23.8416L20.1541 24.3583L19.5583 24.9375C18.7766 25.7124 18.1076 26.5932 17.5708 27.5541C17.0134 28.4989 16.5992 29.5212 16.3416 30.5875C16.0452 31.6419 15.9048 32.734 15.9249 33.8291V34.2458L15.9624 34.6625C15.9916 34.9333 15.9958 35.2125 16.0416 35.4958C16.1306 36.0317 16.2517 36.5618 16.4041 37.0833C16.5498 37.6215 16.7321 38.1492 16.9499 38.6625C17.0624 38.9166 17.1999 39.1583 17.3166 39.4166L17.4999 39.8L17.7208 40.1583C17.8708 40.3916 18.0083 40.6416 18.1708 40.875C18.3333 41.1083 18.5166 41.3208 18.6833 41.5541C18.8506 41.7851 19.0345 42.0037 19.2333 42.2083C19.4171 42.4303 19.6177 42.6378 19.8333 42.8291C21.5675 44.4933 23.7083 45.673 26.0416 46.25L26.9583 46.4625C27.2666 46.5166 27.5791 46.5458 27.8958 46.5958C28.0541 46.6166 28.2124 46.65 28.3708 46.6583H28.8541C29.1708 46.6583 29.5041 46.7125 29.8291 46.6916L30.8333 46.6666C31.1666 46.6666 31.4916 46.5916 31.8291 46.5583C32.4999 46.5291 33.1374 46.3166 33.8416 46.2041Z" fill="#FE4400"/>
<path d="M11.5127 43.125C11.821 43.4917 12.121 43.8542 12.4127 44.2167C12.5627 44.3917 12.696 44.5834 12.8544 44.75L13.3335 45.2417C13.6669 45.5667 13.9544 45.9167 14.3044 46.2125L15.3502 47.0834C15.5167 47.2361 15.6951 47.3754 15.8835 47.5L16.4294 47.8917L16.971 48.2792C17.1502 48.4084 17.3544 48.5084 17.5419 48.6209C17.9294 48.8375 18.3002 49.075 18.6835 49.2834L19.871 49.8375C22.9868 51.2174 26.4159 51.7354 29.8002 51.3375C30.2112 51.3028 30.6192 51.2388 31.021 51.1459C31.4265 51.0838 31.8274 50.9947 32.221 50.8792C32.6127 50.7584 33.0044 50.65 33.396 50.5417C33.7877 50.4334 34.1544 50.2417 34.5377 50.1L35.1002 49.8792L35.6419 49.5959C36.0002 49.4 36.371 49.2334 36.721 49.0375C37.4153 48.6274 38.082 48.1722 38.7169 47.675L39.1919 47.3042L39.4294 47.1209L39.646 46.9125L40.5252 46.0792C40.8085 45.8042 41.0544 45.4834 41.321 45.1875L41.7377 44.7417L42.0835 44.25C43.0509 42.9825 43.8246 41.5783 44.3794 40.0834C44.9716 38.6013 45.3422 37.0401 45.4794 35.45C45.6511 33.8581 45.5907 32.2497 45.3002 30.675L45.071 29.4917L44.721 28.3375C44.6585 28.1459 44.6169 27.9459 44.5377 27.7584L44.3044 27.1959C44.146 26.825 44.0252 26.4334 43.8377 26.0709L43.2544 25C43.0669 24.6375 42.8377 24.3125 42.6085 23.9625C42.5002 23.7875 42.396 23.6084 42.2794 23.4375L41.9044 22.95L41.5335 22.4584L41.346 22.2125L41.1335 21.9875C40.0428 20.7188 38.7807 19.6081 37.3835 18.6875L36.8544 18.3334L36.5877 18.1584L36.3085 18.0084L35.1794 17.4L34.0002 16.8792C33.6085 16.6917 33.1877 16.5917 32.7794 16.4375C32.5752 16.3667 32.3627 16.2834 32.1585 16.2209L31.5252 16.0584C31.1085 15.9584 30.6919 15.8209 30.2377 15.7625C29.7835 15.7042 29.3669 15.6 28.921 15.5417L27.5835 15.4167C25.7424 15.3304 23.8974 15.452 22.0835 15.7792C23.7736 14.8438 25.6022 14.1841 27.5002 13.825C29.4543 13.4685 31.4524 13.4221 33.421 13.6875L34.1669 13.7959C34.4167 13.8282 34.6644 13.8755 34.9085 13.9375L36.3835 14.2959C37.3583 14.5931 38.3107 14.9593 39.2335 15.3917L39.9377 15.7125L40.6044 16.0959L41.2752 16.4834L41.6085 16.6792L41.9252 16.9L43.1752 17.8042C43.5919 18.1375 43.9627 18.4792 44.3544 18.825C45.8984 20.248 47.2226 21.8923 48.2835 23.7042C48.5585 24.15 48.771 24.6334 49.0169 25.1L49.3669 25.8125C49.4835 26.05 49.5627 26.3042 49.6585 26.55L50.2085 28.0417L50.6252 29.5834C51.3476 32.7161 51.3584 35.9709 50.6568 39.1083C49.9551 42.2458 48.559 45.1859 46.571 47.7125L46.0585 48.3334L45.5085 48.9167C45.1377 49.3 44.7919 49.7084 44.396 50.0667L43.1919 51.1167L42.8877 51.375L42.5627 51.6042L41.9044 52.0834C41.0324 52.6861 40.1206 53.229 39.1752 53.7084C38.7002 53.9375 38.2085 54.125 37.721 54.3375L36.9919 54.6334L36.2335 54.8667C34.2342 55.51 32.1464 55.8362 30.046 55.8334C29.5252 55.8334 29.0044 55.8334 28.4877 55.8L26.946 55.6084C26.4347 55.546 25.9281 55.4499 25.4294 55.3209C24.925 55.2145 24.4281 55.0754 23.9419 54.9042L22.5002 54.4334C22.0294 54.2334 21.5669 54.0167 21.1085 53.8042C20.6487 53.5952 20.2032 53.3558 19.7752 53.0875L19.121 52.7042C18.9028 52.5808 18.6939 52.4415 18.496 52.2875L17.2919 51.3959C16.9085 51.075 16.546 50.7334 16.1835 50.3959C16.0044 50.225 15.8127 50.0709 15.646 49.8875L15.1544 49.3334L14.6669 48.7792C14.5007 48.5997 14.3488 48.4075 14.2127 48.2042C13.0485 46.6654 12.137 44.9508 11.5127 43.125V43.125Z" fill="#FE4400"/>
<path d="M31.8418 38.5333L31.5834 34.5208C26.4584 33.9417 23.2959 36.8 20.4751 40.7708C20.7584 34 24.1001 30.4833 31.5751 28.7917L31.8418 25.3167L41.3543 31.9208L31.8418 38.5333Z" fill="#E1E1E6"/>
<path d="M58.988 47V21.8H63.812L78.68 39.944H76.34V21.8H82.1V47H77.312L62.408 28.856H64.748V47H58.988ZM96.8822 47.288C94.8182 47.288 92.9822 46.856 91.3742 45.992C89.7902 45.128 88.5302 43.952 87.5942 42.464C86.6822 40.952 86.2262 39.236 86.2262 37.316C86.2262 35.372 86.6822 33.656 87.5942 32.168C88.5302 30.656 89.7902 29.48 91.3742 28.64C92.9822 27.776 94.8182 27.344 96.8822 27.344C98.9222 27.344 100.746 27.776 102.354 28.64C103.962 29.48 105.222 30.644 106.134 32.132C107.046 33.62 107.502 35.348 107.502 37.316C107.502 39.236 107.046 40.952 106.134 42.464C105.222 43.952 103.962 45.128 102.354 45.992C100.746 46.856 98.9222 47.288 96.8822 47.288ZM96.8822 42.68C97.8182 42.68 98.6582 42.464 99.4022 42.032C100.146 41.6 100.734 40.988 101.166 40.196C101.598 39.38 101.814 38.42 101.814 37.316C101.814 36.188 101.598 35.228 101.166 34.436C100.734 33.644 100.146 33.032 99.4022 32.6C98.6582 32.168 97.8182 31.952 96.8822 31.952C95.9462 31.952 95.1062 32.168 94.3622 32.6C93.6182 33.032 93.0182 33.644 92.5622 34.436C92.1302 35.228 91.9142 36.188 91.9142 37.316C91.9142 38.42 92.1302 39.38 92.5622 40.196C93.0182 40.988 93.6182 41.6 94.3622 42.032C95.1062 42.464 95.9462 42.68 96.8822 42.68ZM119.176 47.288C116.896 47.288 115.12 46.712 113.848 45.56C112.576 44.384 111.94 42.644 111.94 40.34V23.348H117.556V40.268C117.556 41.084 117.772 41.72 118.204 42.176C118.636 42.608 119.224 42.824 119.968 42.824C120.856 42.824 121.612 42.584 122.236 42.104L123.748 46.064C123.172 46.472 122.476 46.784 121.66 47C120.868 47.192 120.04 47.288 119.176 47.288ZM108.952 32.384V28.064H122.38V32.384H108.952ZM135.915 47.288C133.707 47.288 131.763 46.856 130.083 45.992C128.427 45.128 127.143 43.952 126.231 42.464C125.319 40.952 124.863 39.236 124.863 37.316C124.863 35.372 125.307 33.656 126.195 32.168C127.107 30.656 128.343 29.48 129.903 28.64C131.463 27.776 133.227 27.344 135.195 27.344C137.091 27.344 138.795 27.752 140.307 28.568C141.843 29.36 143.055 30.512 143.943 32.024C144.831 33.512 145.275 35.3 145.275 37.388C145.275 37.604 145.263 37.856 145.239 38.144C145.215 38.408 145.191 38.66 145.167 38.9H129.435V35.624H142.215L140.055 36.596C140.055 35.588 139.851 34.712 139.443 33.968C139.035 33.224 138.471 32.648 137.751 32.24C137.031 31.808 136.191 31.592 135.231 31.592C134.271 31.592 133.419 31.808 132.675 32.24C131.955 32.648 131.391 33.236 130.983 34.004C130.575 34.748 130.371 35.636 130.371 36.668V37.532C130.371 38.588 130.599 39.524 131.055 40.34C131.535 41.132 132.195 41.744 133.035 42.176C133.899 42.584 134.907 42.788 136.059 42.788C137.091 42.788 137.991 42.632 138.759 42.32C139.551 42.008 140.271 41.54 140.919 40.916L143.907 44.156C143.019 45.164 141.903 45.944 140.559 46.496C139.215 47.024 137.667 47.288 135.915 47.288ZM155.53 47.288C153.874 47.288 152.278 47.096 150.742 46.712C149.23 46.304 148.03 45.8 147.142 45.2L149.014 41.168C149.902 41.72 150.946 42.176 152.146 42.536C153.37 42.872 154.57 43.04 155.746 43.04C157.042 43.04 157.954 42.884 158.482 42.572C159.034 42.26 159.31 41.828 159.31 41.276C159.31 40.82 159.094 40.484 158.662 40.268C158.254 40.028 157.702 39.848 157.006 39.728C156.31 39.608 155.542 39.488 154.702 39.368C153.886 39.248 153.058 39.092 152.218 38.9C151.378 38.684 150.61 38.372 149.914 37.964C149.218 37.556 148.654 37.004 148.222 36.308C147.814 35.612 147.61 34.712 147.61 33.608C147.61 32.384 147.958 31.304 148.654 30.368C149.374 29.432 150.406 28.7 151.75 28.172C153.094 27.62 154.702 27.344 156.574 27.344C157.894 27.344 159.238 27.488 160.606 27.776C161.974 28.064 163.114 28.484 164.026 29.036L162.154 33.032C161.218 32.48 160.27 32.108 159.31 31.916C158.374 31.7 157.462 31.592 156.574 31.592C155.326 31.592 154.414 31.76 153.838 32.096C153.262 32.432 152.974 32.864 152.974 33.392C152.974 33.872 153.178 34.232 153.586 34.472C154.018 34.712 154.582 34.904 155.278 35.048C155.974 35.192 156.73 35.324 157.546 35.444C158.386 35.54 159.226 35.696 160.066 35.912C160.906 36.128 161.662 36.44 162.334 36.848C163.03 37.232 163.594 37.772 164.026 38.468C164.458 39.14 164.674 40.028 164.674 41.132C164.674 42.332 164.314 43.4 163.594 44.336C162.874 45.248 161.83 45.968 160.462 46.496C159.118 47.024 157.474 47.288 155.53 47.288Z" fill="#E1E1E6"/>
</svg>
