<svg width="400" height="437" viewBox="0 0 400 437" fill="none" xmlns="http://www.w3.org/2000/svg">
<path d="M47.7531 245.517L35.295 245.773L28.9709 245.887C26.8534 245.887 24.7264 245.887 22.6089 245.935H22.1911V245.517L22.1341 234.891V234.407H22.6089L35.181 234.464C39.378 234.464 43.5656 234.569 47.7531 234.616H48.019V234.872C48.019 236.667 47.9335 238.462 47.8955 240.237L47.7531 245.517ZM47.7531 245.517L47.6202 240.142C47.6202 238.376 47.5157 236.629 47.4967 234.891L47.7531 235.148C43.5656 235.195 39.378 235.3 35.181 235.3L22.6089 235.366L23.0837 234.891V245.517L22.6564 245.09C24.7264 245.09 26.7964 245.09 28.876 245.137L35.124 245.251L47.7531 245.517Z" fill="#EBEBEB"/>
<path d="M33.7282 258.915L21.27 259.172L14.946 259.285C12.8285 259.285 10.7015 259.285 8.58397 259.333H8.16617V258.915L8.10919 248.29V247.834H8.58397L21.1561 247.891C25.3436 247.891 29.5406 247.995 33.7282 248.043H33.9941V248.299C33.9941 250.094 33.9181 251.888 33.8706 253.664L33.7282 258.915ZM33.7282 258.915L33.5952 253.531C33.5478 251.765 33.4908 250.018 33.4718 248.28L33.7282 248.537C29.5406 248.584 25.3436 248.688 21.1561 248.688L8.58397 248.783L9.05875 248.318L9.01127 258.944L8.58397 258.516C10.654 258.516 12.724 258.516 14.8036 258.516L21.0516 258.63L33.7282 258.915Z" fill="#EBEBEB"/>
<path d="M180.188 196.995L167.729 197.261L161.405 197.365C159.288 197.412 157.17 197.365 155.043 197.422H154.626V196.995L154.569 186.369V185.894H155.043L167.615 185.951C171.812 185.951 176 186.065 180.188 186.113H180.453V186.369C180.453 188.173 180.368 189.968 180.33 191.734L180.188 196.995ZM180.188 196.995L180.055 191.63C180.055 189.854 179.95 188.107 179.931 186.369L180.188 186.625C176 186.682 171.812 186.777 167.615 186.787L155.043 186.844L155.518 186.369L155.442 196.995L155.015 196.577C157.094 196.577 159.155 196.577 161.234 196.577L167.482 196.681L180.188 196.995Z" fill="#EBEBEB"/>
<path d="M166.163 210.393L153.704 210.659L147.38 210.763C145.263 210.763 143.136 210.763 141.018 210.82H140.601V210.393L140.544 199.767V199.293H141.018L153.59 199.35C157.788 199.35 161.975 199.464 166.163 199.511H166.428V199.767C166.428 201.572 166.343 203.366 166.296 205.132L166.163 210.393ZM166.163 210.393L166.03 205.028C166.03 203.252 165.925 201.505 165.906 199.767L166.163 200.024C161.975 200.024 157.788 200.176 153.59 200.185L141.018 200.242L141.493 199.767L141.446 210.393L141.018 209.966C143.088 209.966 145.158 209.966 147.238 210.023L153.486 210.127L166.163 210.393Z" fill="#EBEBEB"/>
<path d="M194.431 210.393L181.973 210.659L175.649 210.763C173.531 210.763 171.404 210.763 169.287 210.82H168.869V210.393V199.767V199.293H169.344L181.916 199.35C186.103 199.35 190.3 199.464 194.488 199.511H194.754V199.767C194.754 201.572 194.678 203.366 194.63 205.132L194.431 210.393ZM194.431 210.393L194.298 205.028C194.298 203.252 194.193 201.505 194.174 199.767L194.431 200.024C190.243 200.024 186.046 200.176 181.859 200.185L169.287 200.242L169.761 199.767L169.685 210.393L169.258 209.966C171.328 209.966 173.398 209.966 175.478 210.023L181.726 210.127L194.431 210.393Z" fill="#EBEBEB"/>
<path d="M395.357 258.915L382.889 259.172L376.565 259.285C374.457 259.285 372.33 259.285 370.212 259.333H369.785V258.915L369.738 248.29V247.834H370.212L382.785 247.891C386.972 247.891 391.169 247.995 395.357 248.043H395.613V248.299C395.613 250.094 395.537 251.888 395.49 253.664L395.357 258.915ZM395.357 258.915L395.224 253.541C395.224 251.775 395.11 250.027 395.1 248.29L395.357 248.546C391.169 248.594 386.972 248.698 382.785 248.698L370.212 248.755L370.687 248.29L370.63 258.915L370.212 258.488C372.282 258.488 374.353 258.488 376.423 258.488L382.671 258.602L395.357 258.915Z" fill="#EBEBEB"/>
<path d="M381.332 51.4659L368.864 51.7318L362.54 51.8362C360.432 51.8362 358.305 51.8362 356.188 51.8932H355.798V51.4659V40.8404V40.3656H356.283L368.855 40.4226C373.042 40.4226 377.23 40.5365 381.427 40.584H381.683V40.8309C381.683 42.635 381.598 44.4297 381.56 46.1959L381.332 51.4659ZM381.332 51.4659L381.199 46.1009C381.151 44.3252 381.085 42.5781 381.066 40.8404L381.332 41.0968C377.135 41.0968 372.947 41.2487 368.76 41.2582L356.188 41.3152L356.662 40.8404L356.605 51.4659L356.188 51.0386C358.258 51.0386 360.318 51.0386 362.398 51.0956L368.646 51.2L381.332 51.4659Z" fill="#EBEBEB"/>
<path d="M395.357 64.8641L382.889 65.13L376.565 65.2344C374.457 65.2344 372.33 65.2344 370.212 65.2914H369.785V64.8641L369.738 54.2386V53.7638H370.212L382.785 53.8208C386.972 53.8208 391.169 53.9347 395.357 53.9822H395.613V54.2386C395.613 56.0427 395.537 57.8374 395.49 59.6036L395.357 64.8641ZM395.357 64.8641L395.224 59.4991C395.224 57.7234 395.11 55.9763 395.1 54.2386L395.357 54.495C391.169 54.495 386.972 54.6469 382.785 54.6564L370.212 54.7133L370.687 54.2386L370.63 64.8641L370.212 64.4368C372.282 64.4368 374.353 64.4368 376.423 64.4938L382.671 64.5982L395.357 64.8641Z" fill="#EBEBEB"/>
<path d="M47.7531 51.4659L35.295 51.7317L28.9709 51.8362C26.8534 51.8362 24.7264 51.8362 22.6089 51.8932H22.1911V51.4659L22.1341 40.8309V40.3561H22.6089L35.181 40.4131C39.378 40.4131 43.5656 40.527 47.7531 40.5745H48.019V40.8309C48.019 42.635 47.9335 44.4297 47.8955 46.1958L47.7531 51.4659ZM47.7531 51.4659L47.6202 46.1009C47.6202 44.3252 47.5157 42.578 47.4967 40.8404L47.7531 41.0967C43.5656 41.0967 39.378 41.2487 35.181 41.2582L22.6089 41.3151L23.0837 40.8404V51.4659L22.6564 51.0386C24.7264 51.0386 26.7964 51.0386 28.876 51.0955L35.124 51.2L47.7531 51.4659Z" fill="#EBEBEB"/>
<path d="M39.7959 0H38.8463V89.7234H39.7959V0Z" fill="#C7C7C7"/>
<path d="M78.6326 127.62L75.4706 134.571H3.16201L0.00949097 127.62L30.7941 106.312H47.8481L78.6326 127.62Z" fill="#EBEBEB"/>
<path d="M49.9846 85.7828L47.8481 106.312H30.7941L28.6576 85.7828H49.9846Z" fill="#DBDBDB"/>
<path d="M78.6231 127.62L75.4611 134.571H3.15252L0 127.62H78.6231Z" fill="#DBDBDB"/>
<path d="M124.202 0H123.252V67.3045H124.202V0Z" fill="#C7C7C7"/>
<path d="M163.039 105.192L159.877 112.142H87.568L84.4154 105.192L115.2 83.8837H132.254L163.039 105.192Z" fill="#EBEBEB"/>
<path d="M134.391 63.3543L132.254 83.8837H115.2L113.064 63.3543H134.391Z" fill="#DBDBDB"/>
<path d="M163.039 105.201L159.877 112.152H87.568L84.4154 105.201H163.039Z" fill="#DBDBDB"/>
<path d="M3.94064 364.752L53.4504 364.515L102.96 364.439L201.97 364.278L300.98 364.43L350.49 364.515L400 364.752L350.49 364.98L300.98 365.066L201.97 365.227L102.96 365.066L53.4504 364.98L3.94064 364.752Z" fill="#263238"/>
<path d="M201.97 436.216C304.585 436.216 387.77 424.521 387.77 410.094C387.77 395.667 304.585 383.971 201.97 383.971C99.3562 383.971 16.1709 395.667 16.1709 410.094C16.1709 424.521 99.3562 436.216 201.97 436.216Z" fill="#EBEBEB"/>
<path d="M370.212 51.3519V323.694H164.102V51.3519H167.587L168.897 57.0493L174.528 60.7715V65.0635H181.175V58.4166H176.047L176.551 51.4089H191.288L191.725 58.4166H190.775V65.0635H197.422V58.4166H194.573L195.456 51.4089H205.455L207.003 58.4166V65.0635H213.65V58.4166H211.134L212.596 51.4089H223.81L224.399 58.4166H223.212V65.0635H229.859V58.4166H227.086V51.3519H237.863L238.148 53.4409L239.62 58.3596H239.44V65.0065H246.087V58.3596H243.551L243.048 53.8398L242.801 51.3519H257.263V53.9537C257.263 54.1151 258.507 58.3596 258.507 58.3596H255.715V65.0065H262.362V58.3596H260.596V51.3519H273.681L272.969 58.3596H271.953V65.0065H278.599V58.3596H276.985L276.615 51.3519H287.858L288.313 58.3596H288.152V65.0065H294.799V58.3596H292.026L290.051 51.3519H304.066L304.38 58.3596V65.0065H311.027V58.3596H308.32L307.523 51.3519H318.766L320.665 60.6671V65.016H327.312V58.3691H323.646L324.89 51.3614H336.902V65.016H343.549V58.3691H339.409L338.459 51.3614H349.056L353.149 60.2588V65.0065H359.796V58.3596H355.247L354.887 51.3519H370.212Z" fill="#EBEBEB"/>
<path d="M354.773 87.6724H179.542V88.3846H354.773V87.6724Z" fill="#DBDBDB"/>
<path d="M354.773 97.092H179.542V97.8041H354.773V97.092Z" fill="#DBDBDB"/>
<path d="M354.773 106.512H179.542V107.224H354.773V106.512Z" fill="#DBDBDB"/>
<path d="M354.773 115.941H179.542V116.653H354.773V115.941Z" fill="#DBDBDB"/>
<path d="M354.773 125.36H179.542V126.072H354.773V125.36Z" fill="#DBDBDB"/>
<path d="M354.773 134.78H179.542V135.492H354.773V134.78Z" fill="#DBDBDB"/>
<path d="M354.773 144.199H179.542V144.912H354.773V144.199Z" fill="#DBDBDB"/>
<path d="M354.773 153.619H179.542V154.331H354.773V153.619Z" fill="#DBDBDB"/>
<path d="M354.773 163.039H179.542V163.751H354.773V163.039Z" fill="#DBDBDB"/>
<path d="M354.773 172.468H179.542V173.18H354.773V172.468Z" fill="#DBDBDB"/>
<path d="M354.773 181.887H179.542V182.599H354.773V181.887Z" fill="#DBDBDB"/>
<path d="M354.773 191.307H179.542V192.019H354.773V191.307Z" fill="#DBDBDB"/>
<path d="M354.773 200.726H179.542V201.439H354.773V200.726Z" fill="#DBDBDB"/>
<path d="M354.773 210.146H179.542V210.858H354.773V210.146Z" fill="#DBDBDB"/>
<path d="M354.773 219.566H179.542V220.278H354.773V219.566Z" fill="#DBDBDB"/>
<path d="M354.773 228.985H179.542V229.697H354.773V228.985Z" fill="#DBDBDB"/>
<path d="M354.773 238.414H179.542V239.126H354.773V238.414Z" fill="#DBDBDB"/>
<path d="M354.773 247.834H179.542V248.546H354.773V247.834Z" fill="#DBDBDB"/>
<path d="M354.773 257.253H179.542V257.966H354.773V257.253Z" fill="#DBDBDB"/>
<path d="M354.773 266.673H179.542V267.385H354.773V266.673Z" fill="#DBDBDB"/>
<path d="M354.773 276.093H179.542V276.805H354.773V276.093Z" fill="#DBDBDB"/>
<path d="M354.773 285.512H179.542V286.224H354.773V285.512Z" fill="#DBDBDB"/>
<path d="M354.773 294.932H179.542V295.644H354.773V294.932Z" fill="#DBDBDB"/>
<path d="M354.773 304.361H179.542V305.073H354.773V304.361Z" fill="#DBDBDB"/>
<path d="M185.401 94.6801L205.835 94.4427L226.279 94.3098L267.157 94.2053L308.036 94.3098L328.48 94.4427L348.914 94.6801L328.48 94.908L308.036 95.0409L267.157 95.1549L226.279 95.0409L205.835 94.908L185.401 94.6801Z" fill="#263238"/>
<path d="M185.401 104.1C195.466 103.9 205.531 103.815 215.596 103.739L245.792 103.625L275.988 103.729L291.086 103.862L306.184 104.1L291.086 104.328L276.036 104.451L245.84 104.565L215.644 104.451C205.531 104.385 195.466 104.29 185.401 104.1Z" fill="#263238"/>
<path d="M185.401 113.519L205.835 113.291L226.279 113.158L267.157 113.044L308.036 113.158L328.48 113.291L348.914 113.519L328.48 113.747L308.036 113.88L267.157 113.994L226.279 113.88L205.835 113.747L185.401 113.519Z" fill="#263238"/>
<path d="M185.401 122.939C191.99 122.739 198.571 122.654 205.161 122.578L224.921 122.464L244.672 122.578L254.557 122.711C257.842 122.787 261.137 122.834 264.432 122.939C261.137 123.043 257.842 123.091 254.557 123.176L244.672 123.309L224.921 123.414L205.161 123.3C198.571 123.224 191.99 123.138 185.401 122.939Z" fill="#263238"/>
<path d="M185.401 141.778L205.835 141.55L226.279 141.417L267.157 141.303L308.036 141.417L328.48 141.55L348.914 141.778L328.48 142.015L308.036 142.148L267.157 142.253L226.279 142.148L205.835 142.015L185.401 141.778Z" fill="#263238"/>
<path d="M185.401 151.207C195.447 151.008 205.503 150.913 215.549 150.837L245.697 150.732L275.836 150.837L290.915 150.97L305.985 151.207L290.915 151.435L275.836 151.568L245.697 151.672L215.549 151.568C205.503 151.492 195.447 151.397 185.401 151.207Z" fill="#263238"/>
<path d="M185.401 160.627C196.577 160.427 207.744 160.332 218.92 160.256L252.43 160.152L285.939 160.256L302.699 160.389L319.459 160.627L302.699 160.855L285.939 160.988L252.43 161.102L218.92 160.988C207.744 160.912 196.577 160.817 185.401 160.627Z" fill="#263238"/>
<path d="M185.401 179.466C193.728 179.266 202.056 179.181 210.374 179.105L235.357 178.991L260.33 179.096L272.817 179.228L285.303 179.466L272.817 179.694L260.33 179.827L235.357 179.941L210.374 179.827C202.056 179.751 193.728 179.665 185.401 179.466Z" fill="#263238"/>
<path d="M185.401 188.885L205.835 188.658L226.279 188.525L267.157 188.411L308.036 188.525L328.48 188.658L348.914 188.885L328.48 189.123L308.036 189.256L267.157 189.36L226.279 189.246L205.835 189.113L185.401 188.885Z" fill="#263238"/>
<path d="M185.401 198.305C196.577 198.115 207.744 198.02 218.92 197.944L252.43 197.83L285.939 197.944L302.699 198.077L319.459 198.305L302.699 198.542L285.939 198.675L252.43 198.78L218.92 198.675C207.744 198.599 196.577 198.504 185.401 198.305Z" fill="#263238"/>
<path d="M185.401 207.725L205.835 207.497L226.279 207.364L267.157 207.25L308.036 207.364L328.48 207.497L348.914 207.725L328.48 207.962L308.036 208.095L267.157 208.199L226.279 208.095L205.835 207.962L185.401 207.725Z" fill="#263238"/>
<path d="M185.401 217.144C193.538 216.954 201.685 216.859 209.823 216.783L234.246 216.679L258.668 216.783L270.88 216.916L283.091 217.144L270.88 217.382L258.668 217.515L234.246 217.619L209.823 217.515C201.685 217.448 193.538 217.344 185.401 217.144Z" fill="#263238"/>
<path d="M182.315 175.145H115.903C115.027 169.645 114.548 164.088 114.469 158.519V91.6226H198.03V159.383C197.992 166.172 182.315 175.145 182.315 175.145Z" fill="#FE4400"/>
<path opacity="0.2" d="M197.982 159.373C197.982 165.954 183.255 174.566 182.343 175.098C184.783 173.446 184.366 160.37 184.366 160.37C184.366 160.37 197.735 158.633 197.982 159.373Z" fill="black"/>
<path d="M126.766 111.354C136.584 110.557 146.412 110.405 156.202 110.329C165.992 110.253 175.848 110.547 185.638 111.354C175.82 112.171 165.992 112.304 156.202 112.389C146.412 112.475 136.584 112.161 126.766 111.354Z" fill="white"/>
<path d="M126.766 122.369C134.495 121.562 142.224 121.42 149.944 121.334C157.664 121.249 165.403 121.562 173.132 122.369C165.426 123.115 157.687 123.473 149.944 123.442C142.224 123.366 134.495 123.176 126.766 122.369Z" fill="white"/>
<path d="M126.766 133.384C134.495 132.577 142.224 132.387 149.944 132.349C157.686 132.305 165.425 132.651 173.132 133.384C165.403 134.191 157.674 134.381 149.944 134.419C142.215 134.457 134.495 134.191 126.766 133.384Z" fill="white"/>
<path d="M340.415 361.372H261.204C261.204 361.372 257.282 353.282 257.282 345.609V282.16H336.494V346.426C336.494 352.855 340.415 361.372 340.415 361.372Z" fill="#FE4400"/>
<path opacity="0.8" d="M340.415 361.372H261.204C261.204 361.372 257.282 353.282 257.282 345.609V282.16H336.494V346.426C336.494 352.855 340.415 361.372 340.415 361.372Z" fill="white"/>
<path d="M336.494 287.563H257.282V287.801H336.494V287.563Z" fill="#DBDBDB"/>
<path d="M336.494 293.251H257.282V293.488H336.494V293.251Z" fill="#DBDBDB"/>
<path d="M336.494 298.948H257.282V299.186H336.494V298.948Z" fill="#DBDBDB"/>
<path d="M336.494 304.636H257.282V304.874H336.494V304.636Z" fill="#DBDBDB"/>
<path d="M336.494 310.333H257.282V310.571H336.494V310.333Z" fill="#DBDBDB"/>
<path d="M336.494 316.021H257.282V316.259H336.494V316.021Z" fill="#DBDBDB"/>
<path d="M336.494 321.709H257.282V321.947H336.494V321.709Z" fill="#DBDBDB"/>
<path d="M336.494 327.406H257.282V327.644H336.494V327.406Z" fill="#DBDBDB"/>
<path d="M336.494 333.094H257.282V333.332H336.494V333.094Z" fill="#DBDBDB"/>
<path d="M336.494 338.792H257.282V339.029H336.494V338.792Z" fill="#DBDBDB"/>
<path d="M336.494 344.479H257.282V344.717H336.494V344.479Z" fill="#DBDBDB"/>
<path d="M336.893 350.386H257.728C257.723 350.307 257.723 350.227 257.728 350.148H336.893C336.864 350.253 336.883 350.386 336.893 350.386Z" fill="#DBDBDB"/>
<path d="M338.393 356.083H259.162C259.131 356.006 259.106 355.927 259.086 355.846H338.317C338.337 355.927 338.362 356.006 338.393 356.083V356.083Z" fill="#DBDBDB"/>
<path d="M266.331 361.372H266.084C265.458 359.663 264.831 357.859 264.28 356.102C264.28 356.017 264.233 355.941 264.214 355.865C263.641 354.078 263.178 352.258 262.827 350.414C262.823 350.335 262.823 350.256 262.827 350.177C262.675 349.359 262.592 348.53 262.58 347.699V282.179H262.742V347.699C262.754 348.53 262.836 349.359 262.989 350.177C262.989 350.253 262.989 350.329 262.989 350.414C263.347 352.257 263.813 354.077 264.385 355.865C264.385 355.941 264.432 356.026 264.461 356.102C265.078 357.868 265.704 359.672 266.331 361.372Z" fill="#DBDBDB"/>
<path d="M272.029 361.372H271.782C271.155 359.663 270.528 357.859 269.977 356.102C269.977 356.017 269.93 355.941 269.911 355.865C269.338 354.078 268.875 352.258 268.525 350.414C268.52 350.335 268.52 350.256 268.525 350.177C268.372 349.359 268.29 348.53 268.278 347.699V282.179H268.439V347.699C268.451 348.53 268.534 349.359 268.686 350.177C268.686 350.253 268.686 350.329 268.686 350.414C269.045 352.257 269.511 354.077 270.082 355.865C270.082 355.941 270.129 356.026 270.158 356.102C270.775 357.868 271.402 359.672 272.029 361.372Z" fill="#DBDBDB"/>
<path d="M277.716 361.372H277.469C276.843 359.663 276.216 357.859 275.665 356.102C275.665 356.017 275.618 355.941 275.599 355.865C275.026 354.078 274.563 352.258 274.212 350.414C274.192 350.336 274.176 350.257 274.165 350.177C274.012 349.359 273.93 348.53 273.918 347.699V282.179H274.136V347.699C274.148 348.53 274.231 349.359 274.383 350.177C274.383 350.253 274.383 350.329 274.383 350.414C274.742 352.257 275.208 354.077 275.779 355.865C275.779 355.941 275.779 356.026 275.855 356.102C276.463 357.868 277.09 359.672 277.716 361.372Z" fill="#DBDBDB"/>
<path d="M283.414 361.372H283.167C282.54 359.663 281.913 357.859 281.363 356.102C281.363 356.017 281.315 355.941 281.287 355.865C280.718 354.077 280.255 352.257 279.9 350.414C279.9 350.338 279.9 350.253 279.9 350.177C279.748 349.359 279.665 348.53 279.653 347.699V282.179H279.834V347.699C279.846 348.53 279.928 349.359 280.081 350.177C280.081 350.253 280.081 350.329 280.081 350.414C280.439 352.257 280.905 354.077 281.477 355.865C281.477 355.941 281.477 356.026 281.553 356.102C282.16 357.868 282.787 359.672 283.414 361.372Z" fill="#DBDBDB"/>
<path d="M289.102 361.372H288.855C288.228 359.663 287.601 357.859 287.05 356.102C287.05 356.017 287.003 355.941 286.984 355.865C286.411 354.078 285.948 352.258 285.598 350.414C285.577 350.336 285.561 350.257 285.55 350.177C285.398 349.359 285.315 348.53 285.303 347.699V282.179H285.531V347.699C285.543 348.53 285.626 349.359 285.778 350.177C285.778 350.253 285.778 350.329 285.778 350.414C286.137 352.257 286.603 354.077 287.174 355.865C287.174 355.941 287.221 356.026 287.25 356.102C287.848 357.868 288.475 359.672 289.102 361.372Z" fill="#DBDBDB"/>
<path d="M294.799 361.372H294.552C293.925 359.663 293.299 357.859 292.748 356.102C292.748 356.017 292.7 355.941 292.681 355.865C292.108 354.078 291.646 352.258 291.295 350.414C291.275 350.336 291.259 350.257 291.247 350.177C291.095 349.359 291.012 348.53 291.001 347.699V282.179H291.228V347.699C291.24 348.53 291.323 349.359 291.475 350.177C291.475 350.253 291.475 350.329 291.475 350.414C291.834 352.257 292.3 354.077 292.871 355.865C292.871 355.941 292.919 356.026 292.947 356.102C293.545 357.868 294.172 359.672 294.799 361.372Z" fill="#DBDBDB"/>
<path d="M300.487 361.372H300.24C299.613 359.663 298.986 357.859 298.436 356.102C298.436 356.017 298.436 355.941 298.36 355.865C297.791 354.077 297.328 352.257 296.973 350.414C296.973 350.338 296.973 350.253 296.973 350.177C296.821 349.359 296.738 348.53 296.726 347.699V282.179H296.926V347.699C296.938 348.53 297.02 349.359 297.173 350.177C297.173 350.253 297.173 350.329 297.173 350.414C297.531 352.257 297.997 354.077 298.569 355.865C298.569 355.941 298.616 356.026 298.645 356.102C299.233 357.868 299.86 359.672 300.487 361.372Z" fill="#DBDBDB"/>
<path d="M306.184 361.372H305.937C305.31 359.663 304.684 357.859 304.133 356.102C304.133 356.017 304.133 355.941 304.057 355.865C303.489 354.077 303.026 352.257 302.671 350.414C302.671 350.338 302.671 350.253 302.671 350.177C302.518 349.359 302.436 348.53 302.424 347.699V282.179H302.623V347.699C302.635 348.53 302.718 349.359 302.87 350.177C302.87 350.253 302.87 350.329 302.87 350.414C303.229 352.257 303.695 354.077 304.266 355.865C304.266 355.941 304.313 356.026 304.342 356.102C304.931 357.868 305.557 359.672 306.184 361.372Z" fill="#DBDBDB"/>
<path d="M311.872 361.372H311.625C310.998 359.663 310.372 357.859 309.821 356.102C309.821 356.017 309.773 355.941 309.754 355.865C309.182 354.078 308.719 352.258 308.368 350.414C308.348 350.336 308.332 350.257 308.321 350.177C308.168 349.359 308.085 348.53 308.074 347.699V282.179H308.321V347.699C308.332 348.53 308.415 349.359 308.567 350.177C308.567 350.253 308.567 350.329 308.567 350.414C308.926 352.257 309.392 354.077 309.963 355.865C309.963 355.941 310.011 356.026 310.039 356.102C310.618 357.868 311.245 359.672 311.872 361.372Z" fill="#DBDBDB"/>
<path d="M317.569 361.372H317.322C316.696 359.663 316.069 357.859 315.518 356.102C315.518 356.017 315.471 355.941 315.452 355.865C314.879 354.078 314.416 352.258 314.065 350.414C314.045 350.336 314.029 350.257 314.018 350.177C313.865 349.359 313.783 348.53 313.771 347.699V282.179H314.018V347.699C314.03 348.53 314.112 349.359 314.265 350.177C314.265 350.253 314.265 350.329 314.265 350.414C314.623 352.257 315.089 354.077 315.661 355.865C315.661 355.941 315.708 356.026 315.737 356.102C316.316 357.868 316.942 359.672 317.569 361.372Z" fill="#DBDBDB"/>
<path d="M323.257 361.372H323.01C322.383 359.663 321.757 357.859 321.206 356.102C321.206 356.017 321.158 355.941 321.13 355.865C320.551 354.068 320.078 352.238 319.715 350.386C319.715 350.31 319.715 350.224 319.715 350.148C319.563 349.331 319.48 348.502 319.468 347.67V282.151H319.715V347.67C319.727 348.502 319.81 349.331 319.962 350.148C319.962 350.224 319.962 350.3 319.962 350.386C320.321 352.228 320.787 354.048 321.358 355.836C321.358 355.912 321.405 355.998 321.434 356.074C322.004 357.868 322.63 359.672 323.257 361.372Z" fill="#DBDBDB"/>
<path d="M328.954 361.372H328.707C328.081 359.663 327.454 357.859 326.903 356.102C326.903 356.017 326.856 355.941 326.827 355.865C326.248 354.068 325.776 352.238 325.412 350.386C325.412 350.31 325.412 350.224 325.412 350.148C325.26 349.331 325.177 348.502 325.166 347.67V282.151H325.412V347.67C325.424 348.502 325.507 349.331 325.659 350.148C325.659 350.224 325.659 350.3 325.659 350.386C326.018 352.228 326.484 354.048 327.055 355.836C327.055 355.912 327.103 355.998 327.131 356.074C327.701 357.868 328.328 359.672 328.954 361.372Z" fill="#DBDBDB"/>
<path d="M334.642 361.372H334.395C333.769 359.663 333.142 357.859 332.591 356.102C332.591 356.017 332.544 355.941 332.525 355.865C331.941 354.069 331.469 352.239 331.11 350.386C331.105 350.307 331.105 350.227 331.11 350.148C330.957 349.331 330.875 348.502 330.863 347.67V282.151H331.11V347.67C331.122 348.502 331.204 349.331 331.357 350.148C331.357 350.224 331.357 350.3 331.357 350.386C331.715 352.228 332.181 354.048 332.753 355.836C332.753 355.912 332.8 355.998 332.829 356.074C333.389 357.868 334.015 359.672 334.642 361.372Z" fill="#DBDBDB"/>
<path d="M269.189 297.761C273.871 297.562 278.561 297.477 283.243 297.401C287.924 297.325 292.605 297.325 297.296 297.287C301.987 297.249 306.659 297.287 311.34 297.401L318.367 297.533C320.712 297.609 323.048 297.657 325.393 297.761C323.048 297.866 320.712 297.913 318.367 297.999L311.34 298.132C306.659 298.198 301.977 298.198 297.296 298.236C292.615 298.274 287.924 298.236 283.243 298.122C278.561 298.008 273.871 297.961 269.189 297.761Z" fill="#263238"/>
<path d="M269.189 303.345C273.871 303.155 278.561 303.06 283.243 302.984C287.924 302.908 292.605 302.908 297.296 302.87C301.987 302.832 306.659 302.87 311.34 302.984L318.367 303.117C320.712 303.193 323.048 303.24 325.393 303.345C323.048 303.459 320.712 303.497 318.367 303.582L311.34 303.715C306.659 303.791 301.977 303.782 297.296 303.82C292.615 303.857 287.924 303.82 283.243 303.715C278.561 303.611 273.871 303.544 269.189 303.345Z" fill="#263238"/>
<path d="M269.189 308.928C272.541 308.738 275.836 308.643 279.236 308.567C282.635 308.491 285.93 308.472 289.282 308.453C292.634 308.434 295.976 308.453 299.328 308.567L304.342 308.7C306.023 308.776 307.694 308.824 309.365 308.928C307.694 309.042 306.023 309.09 304.342 309.166L299.328 309.299C295.976 309.384 292.624 309.393 289.282 309.403C285.939 309.412 282.578 309.403 279.236 309.299C275.893 309.194 272.541 309.128 269.189 308.928Z" fill="#263238"/>
<path d="M269.189 320.104C271.221 319.905 273.253 319.82 275.285 319.744C277.318 319.668 279.35 319.639 281.382 319.63C283.414 319.62 285.446 319.63 287.487 319.734L290.535 319.867C291.551 319.953 292.567 319.991 293.583 320.104C292.567 320.209 291.551 320.256 290.535 320.332L287.487 320.465C285.446 320.551 283.414 320.57 281.382 320.579C279.35 320.589 277.318 320.579 275.285 320.465C273.253 320.351 271.221 320.294 269.189 320.104Z" fill="#263238"/>
<path d="M269.189 325.697C273.871 325.498 278.561 325.412 283.243 325.336C287.924 325.261 292.605 325.261 297.296 325.223C301.987 325.185 306.659 325.223 311.34 325.327L318.367 325.46C320.712 325.545 323.048 325.593 325.393 325.697C323.048 325.802 320.712 325.849 318.367 325.925L311.34 326.058C306.659 326.134 301.977 326.134 297.296 326.172C292.615 326.21 287.924 326.172 283.243 326.058C278.561 325.944 273.871 325.887 269.189 325.697Z" fill="#263238"/>
<path d="M269.189 331.271C273.168 331.081 277.137 330.986 281.116 330.91C285.094 330.834 289.064 330.834 293.042 330.796C297.021 330.758 300.99 330.796 304.969 330.91L310.932 331.043C312.916 331.119 314.91 331.167 316.895 331.271C314.91 331.376 312.916 331.423 310.932 331.509L304.969 331.642C300.99 331.717 297.021 331.708 293.042 331.746C289.064 331.784 285.094 331.746 281.116 331.632C277.137 331.518 273.187 331.471 269.189 331.271Z" fill="#263238"/>
<path d="M269.189 336.855C272.475 336.665 275.751 336.57 279.036 336.494C282.322 336.418 285.598 336.399 288.883 336.38C292.169 336.361 295.445 336.38 298.73 336.494L303.658 336.627C305.301 336.703 306.934 336.75 308.577 336.855C306.934 336.969 305.301 337.016 303.658 337.092L298.73 337.225C295.445 337.31 292.169 337.32 288.883 337.329C285.598 337.339 282.322 337.329 279.036 337.225C275.751 337.12 272.475 337.092 269.189 336.855Z" fill="#263238"/>
<g opacity="0.5">
<path d="M279.312 274.098L275.855 276.349L279.758 274.849L281.23 277.308L279.653 278.685L281.666 278.03L282.227 278.979L280.081 280.536L282.531 279.482L282.958 280.195L254.006 297.496L252.734 295.369L255.003 293.868L252.401 294.799L251.86 293.897L253.56 292.681L251.575 293.412L251.309 292.976L254.015 290.782L250.626 291.836L249.704 290.288L278.656 272.997L279.312 274.098Z" fill="white"/>
<path d="M344.954 295.786L341.754 293.289L344.385 296.451L342.533 298.635L340.748 297.61L341.992 299.271L341.27 300.116L339.143 298.626L340.89 300.572L340.358 301.199L315.072 279.729L316.677 277.84L318.785 279.473L317.104 277.346L317.788 276.529L319.459 277.735L318.148 276.112L318.481 275.722L321.396 277.555L319.335 274.706L320.494 273.339L345.78 294.808L344.954 295.786Z" fill="white"/>
</g>
<path d="M388.577 248.356H335.326L323.409 240.18L335.326 232.014H388.577V248.356Z" fill="#FE4400"/>
<path d="M400 227.779H346.739L334.832 219.604L346.739 211.428H400V227.779Z" fill="#455A64"/>
<path d="M43.3947 407.445L195.086 408.09C231.957 379.138 235.765 336.247 209.462 310.286C193.538 294.561 173.322 297.733 154.075 295.226H154.018C147.22 294.519 140.606 292.588 134.495 289.529C114.678 279.084 103.501 254.395 86.8273 233.657C84.7478 231.055 82.5828 228.52 80.2944 226.061C66.5828 211.418 39.2926 210.944 25.0208 231.521C-11.2332 283.784 5.41245 361.629 43.3947 407.445Z" fill="#DBDBDB"/>
<path d="M40.0427 287.772C44.0119 350.006 115.893 373.232 160.779 354.592C199.815 338.383 187.034 301.417 154.132 295.188H154.075C147.277 294.481 140.663 292.55 134.552 289.491C114.735 279.046 103.558 254.357 86.8843 233.619C62.0059 220.677 37.1276 242.193 40.0427 287.772Z" fill="#C7C7C7"/>
<path d="M92.6671 202.825C103.482 213.08 110.918 239.753 105.439 256.589C98.9056 276.643 81.016 286.88 66.3454 282.132C53.0516 277.821 47.1549 264.356 52.0451 254.338C56.7929 244.672 65.7947 241.13 67.4659 232.499C68.2635 228.377 66.8866 221.541 67.2285 215.331C67.8362 204.059 84.2255 194.849 92.6671 202.825Z" fill="#263238"/>
<path d="M50.2599 256.655C50.8299 254.558 51.7169 252.56 52.8902 250.73C54.0076 248.946 55.3337 247.301 56.8403 245.83C58.3406 244.378 59.8124 242.877 61.2368 241.31C62.7025 239.724 63.9773 237.971 65.035 236.088C65.5832 235.111 66.0439 234.088 66.4118 233.03C66.745 231.928 66.9427 230.79 67.0006 229.64C67.0692 227.373 67.0185 225.104 66.8486 222.842C66.703 220.621 66.8113 218.391 67.1715 216.195C67.6853 214.037 68.5618 211.982 69.7638 210.118C68.4225 211.908 67.4215 213.929 66.8107 216.081C66.3581 218.304 66.1701 220.574 66.2504 222.842C66.2504 225.102 66.4498 227.361 66.2504 229.555C66.1772 230.631 65.9797 231.696 65.6617 232.726C65.2959 233.712 64.848 234.665 64.3228 235.575C62.2908 239.326 59.2237 242.222 56.3561 245.299C54.8892 246.86 53.6141 248.591 52.5578 250.455C51.4638 252.385 50.6879 254.478 50.2599 256.655Z" fill="#263238"/>
<path d="M170.91 435.494C168.679 434.678 118.315 394.426 117.365 391.682C117.004 390.637 122.436 382.965 129.263 373.878C130.735 371.912 132.273 369.89 133.84 367.848C144.019 354.554 155.129 340.757 155.129 340.757L188.895 367.582L166.685 393.942L161.814 399.734C161.814 399.734 174.158 423.767 174.917 426.891C175.677 430.015 173.142 436.311 170.91 435.494Z" fill="#D3766A"/>
<path d="M170.91 435.494C168.679 434.678 118.315 394.426 117.365 391.682C116.928 390.41 125.037 379.338 133.84 367.848L166.685 393.942L161.814 399.734C161.814 399.734 174.158 423.767 174.917 426.891C175.677 430.015 173.142 436.311 170.91 435.494Z" fill="white"/>
<path d="M170.91 435.494C168.679 434.678 118.315 394.426 117.365 391.682C117.004 390.637 122.436 382.965 129.263 373.878L161.814 399.763C161.814 399.763 174.158 423.796 174.917 426.92C175.677 430.044 173.142 436.311 170.91 435.494Z" fill="#FE4400"/>
<path d="M171.803 432.902C163.523 425.951 129.481 398.718 120.774 392.442C120.698 392.385 120.66 392.442 120.726 392.442C128.779 399.516 163.039 426.512 171.689 432.997C171.869 433.177 171.974 433.054 171.803 432.902Z" fill="#263238"/>
<path d="M173.123 422.495C172.205 421.719 171.136 421.143 169.983 420.803C168.831 420.463 167.62 420.367 166.429 420.52C164.28 420.773 162.313 421.848 160.94 423.521C160.94 423.568 160.997 423.644 161.045 423.597C162.668 422.154 164.715 421.277 166.88 421.098C169.044 420.918 171.208 421.445 173.047 422.599C173.061 422.605 173.076 422.606 173.09 422.602C173.105 422.598 173.117 422.589 173.126 422.577C173.135 422.565 173.139 422.55 173.139 422.536C173.138 422.521 173.132 422.506 173.123 422.495V422.495Z" fill="#263238"/>
<path d="M164.415 403.191C161.073 400.437 156.202 398.5 151.891 399.592C151.729 399.592 151.786 399.867 151.891 399.896C156.083 400.707 160.177 401.965 164.102 403.646C164.163 403.688 164.237 403.704 164.309 403.69C164.381 403.677 164.445 403.636 164.487 403.575C164.528 403.515 164.544 403.44 164.531 403.368C164.517 403.296 164.476 403.232 164.415 403.191V403.191Z" fill="#263238"/>
<path d="M166.21 406.286C162.868 403.542 157.996 401.605 153.685 402.687C153.524 402.735 153.581 402.972 153.685 403.001C157.878 403.812 161.972 405.07 165.897 406.751C165.958 406.793 166.034 406.808 166.107 406.794C166.18 406.78 166.244 406.737 166.286 406.675C166.328 406.614 166.343 406.538 166.329 406.465C166.314 406.392 166.272 406.328 166.21 406.286V406.286Z" fill="#263238"/>
<path d="M168.005 409.391C164.662 406.647 159.791 404.71 155.48 405.792C155.319 405.792 155.376 406.068 155.48 406.096C159.676 406.917 163.77 408.191 167.691 409.894C167.724 409.915 167.761 409.929 167.8 409.935C167.838 409.942 167.877 409.94 167.915 409.931C167.953 409.923 167.989 409.906 168.021 409.884C168.052 409.861 168.079 409.832 168.1 409.799C168.12 409.766 168.134 409.73 168.14 409.691C168.147 409.653 168.146 409.614 168.137 409.576C168.128 409.538 168.112 409.502 168.089 409.47C168.066 409.439 168.038 409.412 168.005 409.391V409.391Z" fill="#263238"/>
<path d="M169.799 412.496C166.457 409.742 161.586 407.805 157.284 408.888C157.113 408.935 157.18 409.173 157.284 409.201C161.477 410.011 165.571 411.269 169.496 412.952C169.556 412.992 169.63 413.007 169.701 412.993C169.772 412.978 169.835 412.936 169.875 412.876C169.916 412.816 169.93 412.742 169.916 412.67C169.902 412.599 169.86 412.536 169.799 412.496V412.496Z" fill="#263238"/>
<path d="M129.329 386.136C125.531 383.117 120.831 388.985 124.639 392.043C128.446 395.1 133.137 389.166 129.329 386.136Z" fill="white"/>
<path d="M175.269 397.085C174.699 394.303 171.471 393.97 169.201 394.597C165.395 395.75 161.959 397.886 159.24 400.788C159.227 400.799 159.215 400.812 159.208 400.828C159.2 400.844 159.196 400.861 159.196 400.878C159.196 400.896 159.2 400.913 159.208 400.929C159.215 400.944 159.227 400.958 159.24 400.969C159.206 401.043 159.189 401.125 159.19 401.207C159.192 401.289 159.212 401.37 159.25 401.443C159.287 401.517 159.341 401.58 159.407 401.63C159.473 401.679 159.549 401.713 159.63 401.728C163.371 401.985 167.331 402.725 171.024 401.823C173.208 401.301 175.82 399.763 175.269 397.085ZM165.384 400.959C163.542 400.874 161.719 400.703 159.877 400.684C161.823 399.487 163.675 398.205 165.783 397.199C166.773 396.702 167.794 396.271 168.84 395.907C170.464 395.385 176.038 395.205 173.436 399.155C172.002 401.329 167.577 401.054 165.384 400.959Z" fill="#263238"/>
<path d="M149.83 395.328C152.413 398.129 156.116 399.715 159.326 401.576C159.4 401.611 159.482 401.628 159.565 401.626C159.647 401.623 159.728 401.601 159.8 401.561C159.873 401.521 159.934 401.465 159.981 401.397C160.027 401.328 160.056 401.25 160.066 401.168C160.142 401.168 160.209 401.121 160.19 401.035C159.541 397.106 157.868 393.418 155.338 390.343C153.837 388.577 150.941 387.048 148.909 389.042C146.877 391.036 148.32 393.695 149.83 395.328ZM149.327 391.777C149.327 387.029 153.894 390.296 154.948 391.635C155.621 392.514 156.231 393.441 156.772 394.407C157.865 396.417 158.857 398.48 159.744 400.589C158.205 399.573 156.591 398.69 154.996 397.74C153.135 396.61 149.308 394.379 149.327 391.777Z" fill="#263238"/>
<path d="M223.003 316.002C220.696 333.541 177.424 384.19 172.458 390.001L171.319 391.321L135.558 363.831L135.967 363.3L167.463 322.07L73.524 321.519L109.189 293.783C109.189 293.783 112.085 295.454 118.096 294.571C138.834 291.542 185.571 284.819 196.596 285.265C210.811 285.816 225.13 299.898 223.003 316.002Z" fill="#37474F"/>
<path d="M178.773 306.706C177.609 308.03 176.524 309.422 175.525 310.875C174.414 312.337 173.284 313.78 172.173 315.243C172.373 314.815 172.563 314.388 172.771 313.961C173.474 312.508 174.034 311.008 174.861 309.621C174.868 309.605 174.87 309.586 174.866 309.569C174.861 309.551 174.85 309.536 174.835 309.526C174.821 309.515 174.802 309.511 174.784 309.513C174.766 309.515 174.75 309.523 174.737 309.536C173.882 310.922 172.895 312.233 172.164 313.685C171.812 314.369 171.49 315.053 171.214 315.755C171.053 316.145 170.882 316.534 170.73 316.923C170.654 317.107 170.587 317.294 170.531 317.484C170.027 318.158 169.581 318.842 169.059 319.535C167.995 321.073 167.065 322.697 165.992 324.216C165.935 324.301 166.058 324.377 166.125 324.301C167.207 322.868 168.423 321.529 169.534 320.104C170.644 318.68 171.717 317.17 172.771 315.67C173.825 314.17 174.804 312.736 175.829 311.264C176.956 309.823 177.993 308.314 178.934 306.744C178.896 306.754 178.82 306.706 178.773 306.706Z" fill="#263238"/>
<path d="M92.5436 260.928C97.6237 270.68 117.09 301.882 127.99 303.145C135.141 303.972 163.124 298.455 167.369 291.285C169.201 288.161 163.618 268.183 159.924 269.36C156.23 270.538 133.849 275.76 130.982 275.228C128.114 274.697 104.878 252.715 96.4938 247.511C82.0415 238.547 89.8089 255.677 92.5436 260.928Z" fill="#D3766A"/>
<path d="M151.217 268.724L154.825 299.214C154.825 299.214 132.805 305.51 122.863 302.747C110.775 299.395 91.1952 263.815 88.451 257.975C83.9501 248.328 84.6528 242.279 90.2552 243.399C92.4392 243.817 95.3543 245.299 99.0006 248.147C102.799 251.091 124.838 270.357 131.627 273.785C135.416 275.798 151.217 268.724 151.217 268.724Z" fill="#455A64"/>
<path d="M151.217 268.724L154.825 299.224C154.825 299.224 151.169 300.268 146.165 301.313C138.891 302.842 128.76 304.38 122.863 302.747C110.785 299.395 91.1952 263.815 88.451 257.966C85.1941 250.996 84.6528 245.897 86.7513 244.036C87.2436 243.657 87.8191 243.401 88.43 243.288C89.041 243.176 89.6699 243.211 90.2647 243.39C92.4297 243.817 95.3543 245.289 99.0006 248.138C102.799 251.081 124.828 270.357 131.618 273.833C135.416 275.808 151.217 268.724 151.217 268.724Z" fill="#FE4400"/>
<path d="M149.213 299.11C148.539 294.618 146.478 276.15 146.307 272.123C146.307 271.848 146.469 271.772 146.516 272.057C148.843 285.465 148.957 294.637 149.365 299.072C149.393 299.186 149.223 299.224 149.213 299.11Z" fill="#263238"/>
<path d="M88.451 257.975C91.1858 263.853 110.785 299.414 122.853 302.756C125.835 303.582 129.909 303.592 134.144 303.221L89.5145 243.295C89.0271 243.216 88.5284 243.242 88.0518 243.371C87.5753 243.501 87.1319 243.73 86.7513 244.045C84.6623 245.935 85.1751 251.005 88.451 257.975Z" fill="#263238"/>
<path d="M54.9128 317.797L112.038 303.202L106.407 282.578C106.407 282.578 110.927 276.112 108.999 269.939C107.29 264.442 94.2623 248.1 91.632 245.906C87.1217 242.175 79.0504 240.921 74.635 246.134C56.4225 267.604 54.9128 317.797 54.9128 317.797Z" fill="#FE4400"/>
<path opacity="0.1" d="M88.4985 243.969L73.3056 247.767C73.7329 247.207 74.1697 246.666 74.616 246.134L74.9294 245.783L85.8303 243.086C86.7462 243.293 87.6398 243.589 88.4985 243.969V243.969ZM92.0783 246.315L70.6374 251.699C70.5424 251.86 70.438 252.021 70.3525 252.183L92.4107 246.647L92.0783 246.315ZM94.8415 249.372L68.254 256.019C67.9596 256.608 67.6653 257.215 67.3804 257.823L95.943 250.683C95.5632 250.217 95.1929 249.78 94.8415 249.372V249.372ZM98.1175 253.379L65.7282 261.507L65.5383 261.963L98.3929 253.731L98.1175 253.379ZM100.539 256.522L64.1329 265.657C63.924 266.239 63.7246 266.819 63.5347 267.395L101.517 257.899C101.213 257.405 100.871 256.959 100.539 256.522V256.522ZM103.53 260.605L62.3858 270.927C62.3327 271.07 62.2883 271.216 62.2528 271.364L103.748 260.919C103.691 260.843 103.606 260.729 103.53 260.605V260.605ZM105.695 263.805L61.2368 274.963C61.0944 275.523 60.9424 276.093 60.7905 276.653L106.569 265.173C106.293 264.736 106.008 264.28 105.695 263.805V263.805ZM108.183 268.021L59.9549 280.119C59.9549 280.261 59.8884 280.413 59.8504 280.556L108.363 268.382C108.313 268.257 108.252 268.137 108.183 268.021V268.021ZM109.351 271.468L59.0813 284.078L58.7395 285.75L109.474 273.026C109.475 272.504 109.434 271.983 109.351 271.468V271.468ZM58.0748 289.159C58.0748 289.301 58.0178 289.453 57.9988 289.595L108.961 276.814C108.961 276.662 109.037 276.52 109.066 276.368L58.0748 289.159ZM57.4101 293.071C57.3246 293.631 57.2392 294.182 57.1632 294.723L106.54 282.331C106.917 281.736 107.263 281.121 107.575 280.489L57.4101 293.071ZM107.157 285.427L56.6884 298.094L56.6315 298.521L107.29 285.816L107.157 285.427ZM108.107 288.931L56.2231 301.959C56.1567 302.519 56.0902 303.06 56.0332 303.592L108.544 290.412L108.107 288.931ZM109.341 293.46L55.6819 306.925C55.6819 307.067 55.6819 307.21 55.6819 307.352L109.522 293.849L109.341 293.46ZM110.291 296.964L55.3495 310.751C55.3495 311.321 55.2641 311.862 55.2261 312.366L110.737 298.445L110.291 296.964ZM111.525 301.484L55.0267 315.67C55.0267 315.813 55.0267 315.955 55.0267 316.088L111.706 301.845L111.525 301.484Z" fill="black"/>
<path d="M99.2475 254.367C100.681 256.152 102.239 257.861 103.72 259.618C103.065 258.326 102.409 257.045 101.697 255.82C101.697 255.82 101.697 255.772 101.697 255.82C102.769 257.304 103.686 258.895 104.432 260.567C105.546 261.884 106.561 263.28 107.471 264.745C108.599 266.45 109.409 268.345 109.864 270.338C110.221 272.368 110.133 274.451 109.607 276.444C108.974 278.752 108.129 280.996 107.081 283.148C106.948 283.433 106.521 283.224 106.626 282.939C108.031 279.141 109.617 275.134 108.99 271.06C108.363 266.986 105.97 263.53 103.634 260.235C102.253 258.213 100.743 256.281 99.1145 254.452C99.0481 254.386 99.1905 254.291 99.2475 254.367Z" fill="#263238"/>
<path d="M97.9751 279.872C95.3622 280.823 92.8231 281.965 90.3786 283.29C89.1727 283.974 88.0142 284.696 86.8653 285.455C86.286 285.835 85.7068 286.186 85.1181 286.538C84.5275 286.933 83.8894 287.252 83.219 287.487C83.2064 287.487 83.1943 287.492 83.1854 287.501C83.1765 287.51 83.1715 287.522 83.1715 287.535C83.1715 287.547 83.1765 287.559 83.1854 287.568C83.1943 287.577 83.2064 287.582 83.219 287.582C83.8835 287.442 84.5372 287.255 85.1751 287.022C85.7839 286.774 86.3769 286.488 86.9507 286.167C88.1757 285.493 89.3626 284.762 90.5875 284.078C93.0469 282.692 95.4967 281.306 98.051 280.1C98.184 280.024 98.0985 279.824 97.9751 279.872Z" fill="#263238"/>
<path d="M105.201 280.461C102.932 280.822 100.684 281.311 98.4689 281.923C97.3579 282.227 96.2849 282.597 95.2119 283.005C94.6991 283.195 94.1959 283.395 93.6926 283.604C93.1893 283.812 92.6006 284.135 92.0499 284.354C91.9834 284.354 92.0499 284.468 92.0499 284.449C92.5911 284.259 93.1513 284.154 93.7021 283.993L95.3353 283.509C96.4368 283.186 97.5288 282.872 98.6208 282.559C100.805 281.894 102.989 281.258 105.201 280.66C105.372 280.612 105.325 280.442 105.201 280.461Z" fill="#263238"/>
<path d="M80.4273 245.982C80.7691 247.008 86.419 253.351 91.1952 252.677C92.743 252.458 91.9169 243.912 91.9169 243.912L92.0024 243.276L93.1513 234.246L82.146 228.548L80.5697 227.798C80.5697 227.798 80.4178 230.296 80.2564 233.391V233.837C80.2564 234.008 80.2564 234.179 80.2564 234.341C80.2564 234.806 80.1994 235.29 80.1804 235.746C80.1614 236.202 80.1804 236.458 80.1804 236.838V237.959C80.0791 240.636 80.1616 243.316 80.4273 245.982V245.982Z" fill="#D3766A"/>
<path d="M80.2659 233.401C81.3893 235.801 83.022 237.928 85.0505 239.633C87.0789 241.338 89.4544 242.581 92.0119 243.276L93.1608 234.246L82.1555 228.548L80.5792 227.798C80.5792 227.798 80.4273 230.305 80.2659 233.401Z" fill="#263238"/>
<path d="M104.451 218.122C108.525 233.562 99.7033 237.75 96.4083 238.623C93.3887 239.421 82.9911 241.738 77.3412 226.801C71.6914 211.865 77.5786 205.104 84.3964 202.92C91.2142 200.736 100.368 202.692 104.451 218.122Z" fill="#D3766A"/>
<path d="M101.697 217.448C101.33 217.467 100.963 217.467 100.596 217.448C100.207 217.491 99.8136 217.408 99.4754 217.211C99.382 217.127 99.3186 217.014 99.2946 216.891C99.2707 216.768 99.2874 216.64 99.3424 216.527C99.488 216.323 99.6854 216.162 99.9141 216.06C100.143 215.959 100.395 215.92 100.643 215.948C101.158 215.923 101.663 216.092 102.058 216.423C102.137 216.504 102.191 216.605 102.215 216.715C102.239 216.826 102.232 216.94 102.195 217.047C102.157 217.153 102.091 217.247 102.003 217.318C101.915 217.389 101.809 217.434 101.697 217.448Z" fill="#263238"/>
<path d="M90.7679 218.977C91.1145 218.854 91.4538 218.711 91.784 218.55C92.1606 218.45 92.4943 218.23 92.7335 217.923C92.7885 217.81 92.8052 217.682 92.7813 217.559C92.7573 217.435 92.6939 217.323 92.6006 217.239C92.3903 217.103 92.1476 217.025 91.8974 217.013C91.6471 217.002 91.3983 217.057 91.1762 217.173C90.6913 217.336 90.2848 217.675 90.0368 218.122C89.9762 218.229 89.9501 218.352 89.9619 218.474C89.9738 218.597 90.023 218.712 90.1028 218.806C90.1827 218.899 90.2894 218.966 90.4084 218.996C90.5274 219.027 90.6529 219.02 90.7679 218.977V218.977Z" fill="#263238"/>
<path d="M93.6546 221.55C93.6546 221.55 93.5786 221.626 93.5881 221.664C93.854 222.718 93.9774 223.972 93.0944 224.513C93.0944 224.513 93.0944 224.589 93.0944 224.57C94.2528 224.171 94.0724 222.509 93.6546 221.55Z" fill="#263238"/>
<path d="M92.4676 220.648C90.73 220.885 91.3282 224.342 92.9424 224.123C94.5567 223.905 93.9205 220.449 92.4676 220.648Z" fill="#263238"/>
<path d="M91.8219 220.952C91.5561 221.199 91.3187 221.598 90.9578 221.693C90.597 221.788 90.1602 221.503 89.8279 221.199C89.8279 221.199 89.7709 221.199 89.7709 221.256C89.8849 221.92 90.2552 222.547 90.9768 222.528C91.6985 222.509 92.0119 221.835 92.0593 221.142C92.0688 221.009 91.9264 220.847 91.8219 220.952Z" fill="#263238"/>
<path d="M99.8931 220.059C99.8931 220.059 99.9786 220.059 99.9881 220.145C100.131 221.218 100.482 222.433 101.507 222.623V222.69C100.301 222.718 99.8552 221.104 99.8931 220.059Z" fill="#263238"/>
<path d="M100.662 218.787C102.362 218.369 103.074 221.807 101.498 222.186C99.9216 222.566 99.2285 219.138 100.662 218.787Z" fill="#263238"/>
<path d="M101.422 218.863C101.735 218.986 102.068 219.262 102.371 219.214C102.675 219.167 102.951 218.73 103.122 218.331C103.122 218.284 103.122 218.331 103.179 218.331C103.331 218.977 103.255 219.708 102.656 219.964C102.058 220.221 101.564 219.727 101.27 219.1C101.242 219.015 101.317 218.806 101.422 218.863Z" fill="#263238"/>
<path d="M95.6201 230.656C95.905 230.884 96.2089 231.198 96.5697 231.179C96.9676 231.117 97.3488 230.975 97.6902 230.761C97.6902 230.761 97.7661 230.761 97.7471 230.761C97.6204 230.992 97.4335 231.185 97.2061 231.319C96.9788 231.452 96.7195 231.522 96.4558 231.521C96.2328 231.486 96.0244 231.388 95.8559 231.238C95.6874 231.088 95.566 230.893 95.5062 230.675C95.4492 230.666 95.5252 230.628 95.6201 230.656Z" fill="#263238"/>
<path d="M99.3139 225.994C99.3139 225.994 99.8362 227.551 99.9786 228.302C99.9786 228.368 99.8172 228.444 99.5608 228.501C98.9369 228.74 98.2588 228.803 97.6018 228.68C96.9447 228.558 96.3344 228.256 95.8386 227.808C95.8254 227.795 95.8171 227.779 95.8153 227.76C95.8134 227.742 95.8181 227.724 95.8284 227.709C95.8387 227.695 95.854 227.684 95.8716 227.679C95.8891 227.675 95.9077 227.676 95.924 227.684C97.0075 228.162 98.216 228.279 99.3709 228.017C99.3709 227.798 98.4213 225.377 98.5068 225.348C99.1022 225.292 99.7025 225.314 100.292 225.415C99.3424 222.148 97.8041 219.062 96.8736 215.786C96.8647 215.762 96.8655 215.734 96.8758 215.71C96.8861 215.686 96.9051 215.667 96.929 215.656C96.953 215.645 96.9801 215.644 97.0051 215.652C97.03 215.66 97.0508 215.678 97.0635 215.701C98.7752 218.96 100.156 222.383 101.185 225.918C101.317 226.317 99.6463 226.042 99.3139 225.994Z" fill="#263238"/>
<path d="M77.5027 227.665C78.467 227.052 79.2567 226.2 79.7956 225.192C80.3345 224.184 80.6044 223.054 80.5792 221.911C83.229 220.39 85.4226 218.187 86.9317 215.53C86.8653 215.872 86.3525 218.322 86.0581 219.566C95.943 216.565 98.2219 208.494 98.2219 208.494C100.347 210.058 102.093 212.08 103.331 214.41C103.331 214.41 102.713 208.209 99.0765 204.411C97.8854 203.08 96.3609 202.09 94.6601 201.545C92.9593 200.999 91.1438 200.916 89.4006 201.306C86.8416 200.975 84.2409 201.342 81.8728 202.366C79.5047 203.391 77.4569 205.035 75.9454 207.126C70.1721 215.008 77.5027 227.665 77.5027 227.665Z" fill="#263238"/>
<path d="M93.5501 217.049C92.0246 218.117 90.3473 218.949 88.5745 219.518C91.3261 218.428 93.7198 216.593 95.4872 214.22C96.236 213.206 96.8549 212.102 97.3294 210.934C97.9116 209.679 98.2345 208.319 98.2789 206.936C98.2789 206.832 98.4308 206.832 98.4308 206.936C98.5397 208.305 98.4177 209.682 98.07 211.01C97.6615 212.312 97.0178 213.529 96.1709 214.599C95.4145 215.541 94.5327 216.375 93.5501 217.078" fill="#263238"/>
<path d="M80.1139 227.342C80.1139 227.342 75.8314 223.031 73.8089 224.636C71.7863 226.241 75.613 232.916 78.3952 233.439C78.7478 233.53 79.1152 233.549 79.4753 233.494C79.8354 233.44 80.1807 233.313 80.4904 233.121C80.8 232.929 81.0677 232.677 81.2772 232.379C81.4866 232.081 81.6336 231.744 81.7092 231.388L80.1139 227.342Z" fill="#D3766A"/>
<path d="M74.9484 226.526V226.592C76.9139 227.02 78.1769 228.558 79.1549 230.201C79.0149 230.036 78.841 229.904 78.6451 229.814C78.4492 229.724 78.236 229.677 78.0202 229.677C77.8044 229.677 77.5912 229.724 77.3953 229.814C77.1993 229.904 77.0254 230.036 76.8854 230.201C76.8854 230.201 76.8854 230.305 76.9519 230.286C77.2566 230.129 77.6022 230.069 77.9419 230.115C78.2816 230.161 78.599 230.31 78.851 230.542C79.2697 230.939 79.6452 231.378 79.9715 231.853C80.0854 232.005 80.3608 231.853 80.2659 231.682C79.886 229.28 77.5027 226.326 74.9484 226.526Z" fill="#263238"/>
<path d="M68.0166 254.053C59.4706 267.442 49.6902 288.817 49.4243 303.934C49.2914 311.312 62.0534 318.015 66.7062 315.784C77.6261 310.514 92.838 298.417 98.8202 290.44C100.938 287.592 78.3288 268.686 76.667 272.066C75.0053 275.447 73.9798 277.422 72.3181 278.713C71.5015 279.35 76.3062 269.408 78.7276 255.487C82.0225 236.487 71.1121 249.201 68.0166 254.053Z" fill="#D3766A"/>
<path d="M94.5472 239.592C94.5472 239.592 91.0053 235.205 94.1958 233.04C97.3863 230.875 100.169 235.756 100.169 235.756L94.5472 239.592Z" fill="#FF91B4"/>
<path d="M100.032 235.605L94.4164 239.437L116.757 272.175L122.373 268.343L100.032 235.605Z" fill="#FE4400"/>
<path opacity="0.2" d="M100.032 235.605L94.4164 239.437L116.757 272.175L122.373 268.343L100.032 235.605Z" fill="black"/>
<path d="M100.386 235.096L93.8292 239.571L94.7177 240.873L101.275 236.398L100.386 235.096Z" fill="#37474F"/>
<path d="M101.357 236.536L94.7996 241.011L95.6881 242.313L102.245 237.838L101.357 236.536Z" fill="#37474F"/>
<path d="M122.388 268.306L123.034 273.795L123.252 275.599L121.638 274.744L116.767 272.142V270.946L117.878 271.383V270.177L118.998 270.614V269.417L120.128 269.845V268.648L121.249 269.075V267.879L122.388 268.306Z" fill="white"/>
<path d="M123.034 273.795L123.252 275.599L121.638 274.744L123.034 273.795Z" fill="#37474F"/>
<path d="M110.728 244.862C112.75 247.653 105.448 252.05 105.448 252.05C106.93 251.989 108.386 252.453 109.56 253.36C111.563 255.05 109.788 258.925 109.788 258.925C111.339 259.182 112.776 259.903 113.909 260.995C115.656 262.808 114.421 266.967 114.421 266.967C115.716 267.994 116.596 269.455 116.9 271.079C117.545 275.437 112.076 279.454 109.18 282.616C106.075 285.996 99.9881 289.215 97.6332 291.675L75.9454 273.814C75.9454 273.814 82.8866 256.19 88.9733 251.442C92.3632 248.783 107.642 240.598 110.728 244.862Z" fill="#D3766A"/>
<path d="M105.334 252.012C100.909 253.569 96.8736 256.171 92.9899 258.735C92.9044 258.792 92.9899 258.925 93.0849 258.868C96.8831 256.275 101.507 254.642 105.429 252.221C105.457 252.208 105.478 252.185 105.489 252.157C105.5 252.128 105.499 252.097 105.486 252.069C105.473 252.041 105.45 252.02 105.422 252.009C105.393 251.998 105.362 251.999 105.334 252.012V252.012Z" fill="#263238"/>
<path d="M109.484 258.706C108.514 259.16 107.607 259.738 106.787 260.425C105.837 261.09 104.973 261.783 104.09 262.486C102.305 263.878 100.561 265.325 98.8581 266.825C98.7822 266.891 98.8581 267.015 98.9436 266.958C100.719 265.562 102.514 264.195 104.356 262.875C105.306 262.21 106.189 261.564 107.119 260.909C108.031 260.371 108.882 259.734 109.655 259.01C109.695 258.987 109.725 258.95 109.737 258.905C109.749 258.861 109.744 258.813 109.721 258.773C109.698 258.732 109.661 258.703 109.616 258.69C109.572 258.678 109.524 258.684 109.484 258.706V258.706Z" fill="#263238"/>
<path d="M114.345 267.024C113.475 267.446 112.682 268.011 112 268.696C111.202 269.351 110.405 270.006 109.598 270.652C107.993 271.943 106.379 273.234 104.726 274.45C104.641 274.507 104.726 274.64 104.821 274.583C106.502 273.329 108.211 272.104 109.882 270.842C110.709 270.224 111.525 269.598 112.342 268.942C113.14 268.436 113.844 267.793 114.421 267.043C114.421 267.043 114.393 267.015 114.345 267.024Z" fill="#263238"/>
<path d="M87.7863 252.506C89.4555 250.449 91.716 248.954 94.2623 248.223C94.3668 248.223 94.3668 248.223 94.2623 248.299C91.9463 249.437 89.7832 250.864 87.8243 252.544L87.7863 252.506Z" fill="#263238"/>
<path d="M99.8932 294.419L76.3157 271.202L72.7169 277.726C72.7169 277.726 78.0914 263.207 79.4587 255.288C80.8261 247.369 80.5982 238.082 70.5519 249.951C60.7145 261.574 47.5347 295.103 48.2089 303.791C48.8831 312.48 59.9359 317.74 65.5003 316.743C71.0647 315.746 99.8932 294.419 99.8932 294.419Z" fill="#FE4400"/>
<path d="M93.7211 296.926C90.4261 293.802 77.4172 280.527 74.7964 277.469C74.616 277.251 74.711 277.09 74.9294 277.289C85.0231 286.405 90.7679 293.555 93.835 296.783C93.9299 296.869 93.8255 297.002 93.7211 296.926Z" fill="#263238"/>
<path d="M55.8528 301.246C57.1252 299.043 58.6065 296.926 60.0213 294.799C61.4362 292.672 62.87 290.516 64.3513 288.427C65.8326 286.338 67.4469 284.297 69.0421 282.255C69.8302 281.23 71.378 279.236 72.1756 278.22C72.9733 277.204 73.0492 277.441 72.2991 278.542C71.5489 279.644 70.1056 281.638 69.384 282.702C67.9691 284.791 66.5353 286.899 65.1204 288.959C63.7056 291.02 62.1294 293.061 60.6196 295.103C59.1098 297.144 57.638 299.309 56.0142 301.322C55.9478 301.408 55.8053 301.341 55.8528 301.246Z" fill="#263238"/>
<path d="M74.673 270.519C75.4896 268.116 76.4771 265.771 77.1133 263.283C77.1133 263.188 77.2937 263.226 77.2653 263.283C76.7905 264.907 76.4202 266.55 75.9929 268.183C76.0374 268.118 76.0786 268.052 76.1163 267.983C76.4866 267.357 76.8475 266.711 77.1988 266.084C77.2463 265.999 77.3792 266.084 77.3317 266.17C77.0089 266.825 76.686 267.49 76.3822 268.154C76.1667 268.702 75.8963 269.227 75.5751 269.721C75.4706 270.072 75.3756 270.424 75.2617 270.775C74.5279 273.188 73.6235 275.546 72.5555 277.83C72.5368 277.856 72.5099 277.875 72.4793 277.884C72.4486 277.893 72.4158 277.891 72.3862 277.879C72.3566 277.867 72.332 277.845 72.3162 277.817C72.3004 277.79 72.2944 277.757 72.2991 277.726C73.0018 275.314 73.8469 272.902 74.673 270.519Z" fill="#263238"/>
<path d="M76.1353 271.069C76.2113 270.946 76.7905 271.554 77.0848 271.877C77.1323 271.924 77.0848 271.952 76.9994 271.877C76.9139 271.801 76.5911 271.649 76.4107 271.497C75.8599 272.598 72.8024 277.792 72.6124 278.02C72.4225 278.248 72.4225 278.02 72.47 277.887C72.6029 277.346 75.4516 272.199 76.1353 271.069Z" fill="#263238"/>
<path d="M73.2391 312.698C80.0379 307.732 86.9697 302.927 94.0629 298.379C95.962 297.125 97.8611 295.786 99.7602 294.486C99.5513 294.353 97.6332 292.321 97.5762 292.245C97.5193 292.169 97.5762 292.15 97.5762 292.188C97.7946 292.368 100.244 294.353 100.425 294.58C100.605 294.808 93.3127 299.642 89.9038 302.053C86.4949 304.465 82.9151 306.754 79.3733 309.033C77.3602 310.324 75.3377 311.596 73.2866 312.831C73.2296 312.878 73.1632 312.755 73.2391 312.698Z" fill="#263238"/>
<path d="M150.59 302.5L115.029 305.576L127.696 258.516L163.257 255.44L150.59 302.5Z" fill="#EBEBEB"/>
<path d="M153.03 302.291L117.46 305.358L130.127 258.298L165.688 255.231L153.03 302.291Z" fill="#FE4400"/>
<path d="M133.906 257.975C133.731 258.794 133.239 259.51 132.539 259.969C132.216 260.178 132.093 259.741 132.406 259.542C132.862 259.247 133.199 258.799 133.355 258.279C133.383 258.195 133.405 258.109 133.422 258.023C133.499 257.736 133.499 257.435 133.422 257.149C133.384 257.029 133.307 256.925 133.204 256.855V256.855H133.156C133.134 256.859 133.111 256.859 133.09 256.855C133.01 256.827 132.923 256.827 132.843 256.855C132.692 256.926 132.56 257.03 132.453 257.158C132.328 257.312 132.223 257.481 132.14 257.662C132.14 257.747 132.055 257.842 132.007 257.937V257.994V258.089C132.004 258.111 132.004 258.133 132.007 258.155L131.504 258.203C131.596 257.869 131.733 257.55 131.912 257.253C132.045 257.011 132.23 256.8 132.453 256.636C132.676 256.472 132.932 256.358 133.204 256.304C133.403 256.282 133.603 256.338 133.762 256.46C133.922 256.582 134.028 256.761 134.058 256.959C134.093 257.305 134.041 257.654 133.906 257.975Z" fill="#455A64"/>
<path d="M136.688 257.738C136.513 258.556 136.022 259.273 135.321 259.732C134.998 259.941 134.875 259.504 135.198 259.304C135.649 259.004 135.983 258.558 136.147 258.042C136.147 257.956 136.195 257.861 136.204 257.785C136.281 257.499 136.281 257.198 136.204 256.912C136.165 256.79 136.084 256.686 135.976 256.617V256.617H135.9C135.82 256.59 135.734 256.59 135.653 256.617C135.505 256.683 135.375 256.784 135.274 256.912C135.094 257.156 134.944 257.42 134.827 257.7V257.757C134.825 257.788 134.825 257.82 134.827 257.852C134.823 257.874 134.823 257.896 134.827 257.918H134.324C134.418 257.585 134.555 257.266 134.732 256.969C134.865 256.726 135.05 256.515 135.273 256.351C135.496 256.187 135.752 256.074 136.024 256.019C136.223 255.997 136.423 256.053 136.583 256.175C136.742 256.297 136.848 256.476 136.878 256.674C136.909 257.039 136.844 257.406 136.688 257.738V257.738Z" fill="#455A64"/>
<path d="M139.471 257.5C139.299 258.316 138.811 259.029 138.113 259.485C137.79 259.703 137.657 259.266 137.98 259.058C138.428 258.758 138.762 258.317 138.929 257.804C138.953 257.717 138.972 257.628 138.986 257.538C139.063 257.252 139.063 256.951 138.986 256.665C138.941 256.546 138.862 256.444 138.758 256.37V256.37H138.692C138.604 256.364 138.516 256.38 138.436 256.418C138.286 256.482 138.155 256.583 138.056 256.712C137.924 256.861 137.818 257.031 137.742 257.215C137.689 257.302 137.644 257.395 137.609 257.491V257.557C137.604 257.589 137.604 257.621 137.609 257.652C137.609 257.652 137.609 257.652 137.609 257.709L137.106 257.757C137.2 257.424 137.337 257.104 137.515 256.807C137.65 256.567 137.836 256.358 138.058 256.194C138.281 256.03 138.536 255.916 138.806 255.858C139.006 255.838 139.206 255.896 139.365 256.02C139.524 256.144 139.63 256.323 139.661 256.522C139.682 256.859 139.616 257.196 139.471 257.5V257.5Z" fill="#455A64"/>
<path d="M142.253 257.253C142.169 257.659 142.007 258.044 141.773 258.386C141.54 258.729 141.242 259.021 140.895 259.247C140.572 259.456 140.439 259.02 140.762 258.82C141.216 258.522 141.551 258.076 141.712 257.557C141.736 257.473 141.755 257.388 141.769 257.301C141.845 257.015 141.845 256.713 141.769 256.427C141.727 256.307 141.647 256.203 141.541 256.133V256.133H141.493H141.427C141.346 256.11 141.261 256.11 141.18 256.133C141.028 256.202 140.895 256.306 140.79 256.437C140.662 256.588 140.556 256.758 140.477 256.94C140.427 257.029 140.383 257.121 140.344 257.215V257.272V257.367C140.344 257.367 140.344 257.367 140.344 257.434L139.831 257.481C139.924 257.148 140.061 256.828 140.24 256.532C140.376 256.291 140.561 256.082 140.784 255.919C141.006 255.755 141.261 255.64 141.531 255.582C141.732 255.56 141.933 255.616 142.094 255.738C142.255 255.859 142.362 256.038 142.395 256.237C142.433 256.583 142.384 256.932 142.253 257.253V257.253Z" fill="#455A64"/>
<path d="M145.044 257.016C144.869 257.835 144.378 258.551 143.677 259.01C143.354 259.219 143.221 258.782 143.544 258.583C143.998 258.285 144.334 257.838 144.494 257.32C144.494 257.234 144.541 257.14 144.551 257.064C144.627 256.777 144.627 256.476 144.551 256.19C144.514 256.067 144.433 255.962 144.323 255.896V255.896H144.256C144.176 255.868 144.089 255.868 144.009 255.896C143.858 255.961 143.725 256.062 143.62 256.19C143.495 256.347 143.389 256.519 143.307 256.703C143.259 256.788 143.221 256.883 143.174 256.978V257.035C143.167 257.066 143.167 257.099 143.174 257.13C143.174 257.13 143.174 257.13 143.174 257.196H142.671C142.758 256.863 142.892 256.543 143.069 256.247C143.202 256.004 143.387 255.793 143.61 255.629C143.833 255.465 144.089 255.352 144.361 255.297C144.562 255.273 144.764 255.328 144.926 255.45C145.087 255.572 145.194 255.752 145.225 255.953C145.259 256.317 145.197 256.684 145.044 257.016V257.016Z" fill="#455A64"/>
<path d="M147.846 256.779C147.67 257.595 147.178 258.308 146.478 258.763C146.155 258.982 146.023 258.545 146.345 258.336C146.797 258.04 147.132 257.597 147.295 257.082C147.322 256.995 147.344 256.906 147.361 256.817C147.438 256.534 147.438 256.235 147.361 255.953C147.326 255.829 147.249 255.721 147.143 255.649V255.649H146.896C146.811 255.641 146.725 255.657 146.649 255.696C146.496 255.759 146.362 255.86 146.26 255.991C146.135 256.144 146.029 256.313 145.947 256.494C145.947 256.579 145.861 256.674 145.814 256.769V256.836C145.809 256.867 145.809 256.899 145.814 256.931C145.814 256.931 145.814 256.931 145.814 256.988H145.31C145.4 256.655 145.534 256.335 145.709 256.038C145.846 255.798 146.032 255.59 146.254 255.426C146.477 255.263 146.731 255.148 147.001 255.088C147.202 255.069 147.403 255.127 147.564 255.25C147.724 255.374 147.832 255.553 147.865 255.753C147.944 256.091 147.937 256.444 147.846 256.779V256.779Z" fill="#455A64"/>
<path d="M150.609 256.541C150.43 257.356 149.939 258.069 149.242 258.526C148.919 258.735 148.795 258.298 149.109 258.099C149.565 257.804 149.902 257.356 150.058 256.836C150.086 256.752 150.108 256.666 150.125 256.579C150.202 256.293 150.202 255.992 150.125 255.706C150.087 255.586 150.01 255.482 149.906 255.411V255.411H149.859H149.745C149.664 255.389 149.579 255.389 149.498 255.411C149.346 255.481 149.213 255.585 149.109 255.715C148.983 255.869 148.878 256.038 148.795 256.218C148.748 256.304 148.71 256.399 148.662 256.494V256.56C148.659 256.589 148.659 256.617 148.662 256.646C148.659 256.668 148.659 256.69 148.662 256.712H148.159C148.246 256.377 148.384 256.057 148.567 255.763C148.7 255.52 148.885 255.309 149.108 255.145C149.331 254.981 149.587 254.868 149.859 254.813C150.058 254.791 150.258 254.847 150.418 254.969C150.577 255.091 150.683 255.27 150.713 255.468C150.771 255.829 150.735 256.199 150.609 256.541Z" fill="#455A64"/>
<path d="M153.391 256.294C153.215 257.113 152.724 257.83 152.024 258.288C151.701 258.497 151.577 258.061 151.9 257.861C152.351 257.56 152.686 257.115 152.85 256.598C152.85 256.513 152.897 256.418 152.907 256.342C152.983 256.056 152.983 255.754 152.907 255.468C152.867 255.347 152.787 255.243 152.679 255.174V255.174H152.603C152.523 255.147 152.436 255.147 152.356 255.174C152.208 255.24 152.077 255.341 151.976 255.468C151.844 255.621 151.738 255.794 151.663 255.981C151.609 256.068 151.565 256.16 151.53 256.256V256.313V256.408C151.526 256.43 151.526 256.453 151.53 256.475H151.027C151.122 256.142 151.259 255.823 151.435 255.525C151.568 255.282 151.752 255.072 151.976 254.908C152.199 254.744 152.455 254.63 152.726 254.576C152.926 254.554 153.126 254.61 153.285 254.732C153.444 254.854 153.55 255.033 153.581 255.231C153.612 255.596 153.547 255.963 153.391 256.294V256.294Z" fill="#455A64"/>
<path d="M156.173 256.057C156.002 256.872 155.513 257.586 154.815 258.042C154.493 258.26 154.36 257.823 154.682 257.624C155.129 257.319 155.463 256.875 155.632 256.361C155.656 256.273 155.675 256.185 155.689 256.095C155.766 255.812 155.766 255.514 155.689 255.231C155.647 255.108 155.567 255.002 155.461 254.927V254.927H155.357C155.269 254.921 155.18 254.937 155.1 254.975C154.95 255.038 154.82 255.14 154.72 255.269C154.59 255.419 154.485 255.589 154.407 255.772C154.353 255.859 154.309 255.951 154.274 256.048V256.114C154.27 256.146 154.27 256.177 154.274 256.209C154.274 256.209 154.274 256.209 154.274 256.266L153.771 256.313C153.864 255.98 154.002 255.661 154.179 255.364C154.315 255.123 154.501 254.914 154.723 254.751C154.946 254.587 155.2 254.472 155.471 254.414C155.671 254.395 155.871 254.453 156.03 254.577C156.189 254.7 156.295 254.88 156.325 255.079C156.354 255.412 156.302 255.748 156.173 256.057V256.057Z" fill="#455A64"/>
<path d="M158.955 255.82C158.784 256.635 158.295 257.349 157.598 257.804C157.275 258.013 157.142 257.576 157.465 257.377C157.916 257.076 158.25 256.631 158.414 256.114C158.439 256.03 158.458 255.944 158.471 255.858C158.548 255.571 158.548 255.27 158.471 254.984C158.43 254.864 158.35 254.76 158.243 254.69V254.69H158.177C158.096 254.667 158.011 254.667 157.93 254.69C157.778 254.759 157.645 254.863 157.541 254.994C157.412 255.145 157.306 255.314 157.227 255.497C157.177 255.586 157.133 255.678 157.094 255.772V255.839C157.089 255.87 157.089 255.902 157.094 255.934C157.094 255.934 157.094 255.934 157.094 255.991L156.582 256.038C156.674 255.704 156.811 255.385 156.99 255.088C157.126 254.848 157.311 254.639 157.534 254.475C157.756 254.312 158.011 254.197 158.281 254.139C158.481 254.117 158.681 254.173 158.84 254.295C158.999 254.417 159.105 254.596 159.136 254.794C159.167 255.146 159.104 255.5 158.955 255.82V255.82Z" fill="#455A64"/>
<path d="M161.747 255.573C161.572 256.392 161.08 257.108 160.38 257.567C160.057 257.776 159.924 257.339 160.247 257.14C160.7 256.842 161.036 256.395 161.196 255.877C161.22 255.792 161.239 255.707 161.253 255.62C161.33 255.334 161.33 255.033 161.253 254.747C161.217 254.623 161.136 254.518 161.026 254.452V254.452H160.959C160.879 254.425 160.792 254.425 160.712 254.452C160.563 254.521 160.43 254.622 160.323 254.747C160.197 254.904 160.092 255.076 160.009 255.259C160.009 255.345 159.924 255.44 159.877 255.535V255.592C159.869 255.623 159.869 255.655 159.877 255.687C159.877 255.687 159.877 255.734 159.877 255.753H159.373C159.458 255.419 159.593 255.099 159.772 254.804C159.905 254.561 160.09 254.35 160.313 254.186C160.536 254.022 160.792 253.909 161.063 253.854C161.264 253.83 161.467 253.884 161.628 254.007C161.79 254.129 161.897 254.309 161.928 254.509C161.962 254.873 161.899 255.24 161.747 255.573V255.573Z" fill="#455A64"/>
<path d="M164.529 255.335C164.353 256.151 163.862 256.865 163.162 257.32C162.839 257.538 162.706 257.101 163.029 256.902C163.479 256.6 163.814 256.155 163.979 255.639C163.979 255.554 164.026 255.459 164.045 255.383C164.122 255.097 164.122 254.795 164.045 254.509C164.01 254.383 163.929 254.274 163.817 254.205V254.205H163.77H163.703C163.618 254.198 163.533 254.214 163.456 254.253C163.303 254.315 163.169 254.417 163.067 254.547C162.944 254.702 162.839 254.871 162.754 255.05C162.754 255.136 162.668 255.231 162.621 255.326V255.392C162.617 255.424 162.617 255.456 162.621 255.487C162.621 255.487 162.621 255.487 162.621 255.544L162.117 255.592C162.207 255.259 162.342 254.939 162.516 254.642C162.653 254.402 162.839 254.194 163.061 254.03C163.284 253.867 163.538 253.752 163.808 253.693C164.009 253.673 164.211 253.731 164.371 253.854C164.531 253.978 164.639 254.157 164.672 254.357C164.703 254.69 164.654 255.025 164.529 255.335Z" fill="#455A64"/>
<path d="M164.491 266.531C166.315 270.414 170.92 275.247 171.281 278.419C171.399 279.197 171.264 279.992 170.894 280.686C170.525 281.381 169.941 281.938 169.23 282.274C169.23 282.274 172.382 283.869 172.24 286.794C172.164 288.304 169.695 289.51 169.695 289.51C169.695 289.51 172.164 290.896 171.869 293.488C171.642 295.558 169.201 296.461 169.201 296.461C169.201 296.461 170.948 298.891 170.037 300.923C168.195 305.045 150.315 304.959 147.589 298.36C146.317 295.283 150.685 295.511 150.685 295.511C150.685 295.511 144.503 293.612 144.427 289.937C144.351 286.262 150.001 286.937 150.001 286.937C150.001 286.937 144.019 285.037 144.304 281.239C144.617 277.251 150.153 278.903 150.153 278.903C150.153 278.903 146.193 276.188 147.105 273.31C148.596 268.563 156.097 274.583 160.028 273.671L162.231 267.205L164.491 266.531Z" fill="#D3766A"/>
<path d="M168.043 272.18C166.647 268.382 171.404 263.634 170.587 259.836C169.486 254.623 163.599 259.694 162.26 267.252V273.301L168.043 272.18Z" fill="#D3766A"/>
<path d="M168.831 296.66C168.888 296.66 168.907 296.736 168.831 296.745C162.718 298.226 156.3 297.812 150.428 295.559C150.239 295.483 150.286 295.15 150.504 295.188C156.509 296.566 162.683 297.062 168.831 296.66Z" fill="#263238"/>
<path d="M169.78 289.548C169.847 289.548 169.856 289.652 169.78 289.671C163.703 291.086 155.945 290.573 149.783 287.126C149.564 287.003 149.498 286.69 149.783 286.804C154.037 288.788 163.988 290.004 169.78 289.548Z" fill="#263238"/>
<path d="M149.811 278.523C155.85 281.6 162.269 282.436 168.983 282.322C169.078 282.322 169.068 282.445 168.983 282.464C165.716 283.414 161.386 283.015 158.12 282.464C155.035 281.981 152.131 280.697 149.697 278.742C149.612 278.656 149.688 278.457 149.811 278.523Z" fill="#263238"/>
<path d="M301.474 378.616C300.648 380.838 260.235 431.079 257.481 432.019C256.446 432.38 248.783 426.92 239.715 420.064C237.759 418.583 235.746 417.035 233.704 415.459C220.477 405.242 206.718 394.065 206.718 394.065L233.657 360.385L259.893 382.671L265.666 387.561C265.666 387.561 289.738 375.217 292.871 374.542C296.005 373.868 302.3 376.385 301.474 378.616Z" fill="#D3766A"/>
<path d="M301.474 378.616C300.648 380.838 260.235 431.079 257.481 432.019C256.209 432.456 245.137 424.309 233.742 415.459L259.893 382.671L265.666 387.561C265.666 387.561 289.738 375.217 292.871 374.542C296.005 373.868 302.3 376.385 301.474 378.616Z" fill="white"/>
<path d="M301.474 378.616C300.648 380.838 260.235 431.079 257.481 432.019C256.446 432.38 248.783 426.92 239.715 420.064L265.676 387.599C265.676 387.599 289.747 375.255 292.881 374.58C296.014 373.906 302.3 376.385 301.474 378.616Z" fill="#FE4400"/>
<path d="M298.882 377.714C291.903 385.975 264.527 419.922 258.25 428.61C258.25 428.686 258.25 428.724 258.307 428.658C265.401 420.624 292.491 386.45 299.024 377.828C299.157 377.647 299.034 377.543 298.882 377.714Z" fill="#263238"/>
<path d="M288.475 376.356C287.702 377.267 287.127 378.328 286.784 379.471C286.44 380.615 286.337 381.818 286.481 383.003C286.728 385.152 287.796 387.121 289.462 388.501C289.51 388.501 289.586 388.444 289.538 388.396C288.103 386.768 287.235 384.717 287.064 382.553C286.893 380.39 287.428 378.228 288.589 376.394C288.587 376.382 288.582 376.37 288.574 376.36C288.566 376.35 288.556 376.343 288.544 376.339C288.532 376.335 288.519 376.335 288.507 376.338C288.495 376.341 288.483 376.347 288.475 376.356V376.356Z" fill="#263238"/>
<path d="M269.142 385.007C266.388 388.339 264.394 393.201 265.505 397.512C265.505 397.683 265.78 397.626 265.809 397.512C266.636 393.321 267.909 389.23 269.607 385.31C269.647 385.249 269.662 385.174 269.646 385.101C269.631 385.029 269.588 384.966 269.526 384.926C269.465 384.886 269.39 384.871 269.317 384.887C269.245 384.902 269.182 384.945 269.142 385.007Z" fill="#263238"/>
<path d="M272.237 383.221C269.484 386.554 267.49 391.416 268.601 395.727C268.601 395.898 268.876 395.831 268.904 395.727C269.731 391.536 271.005 387.445 272.703 383.525C272.743 383.464 272.757 383.388 272.742 383.316C272.727 383.244 272.684 383.181 272.622 383.141C272.56 383.1 272.485 383.086 272.413 383.101C272.341 383.117 272.278 383.16 272.237 383.221Z" fill="#263238"/>
<path d="M275.361 381.436C272.598 384.769 270.614 389.631 271.715 393.942C271.715 394.113 271.99 394.046 272.019 393.942C272.847 389.754 274.12 385.667 275.817 381.75C275.838 381.72 275.852 381.686 275.86 381.65C275.867 381.615 275.868 381.578 275.861 381.542C275.855 381.507 275.841 381.473 275.821 381.442C275.801 381.412 275.776 381.386 275.746 381.365C275.716 381.344 275.682 381.33 275.647 381.322C275.611 381.315 275.575 381.314 275.539 381.321C275.503 381.328 275.469 381.341 275.439 381.361C275.408 381.381 275.382 381.406 275.361 381.436V381.436Z" fill="#263238"/>
<path d="M278.466 379.651C275.703 382.984 273.719 387.846 274.82 392.157C274.82 392.328 275.105 392.261 275.133 392.157C275.96 387.969 277.233 383.881 278.932 379.964C278.973 379.903 278.989 379.827 278.974 379.754C278.96 379.681 278.917 379.617 278.856 379.575C278.794 379.534 278.718 379.518 278.645 379.533C278.572 379.547 278.508 379.589 278.466 379.651V379.651Z" fill="#263238"/>
<path d="M251.983 420.036C248.945 423.834 254.832 428.582 257.871 424.783C260.909 420.985 255.012 416.237 251.983 420.036Z" fill="white"/>
<path d="M263.074 374.125C260.292 374.694 259.941 377.923 260.567 380.192C261.705 384.008 263.828 387.456 266.72 390.191C266.731 390.205 266.745 390.216 266.76 390.224C266.776 390.232 266.793 390.236 266.811 390.236C266.828 390.236 266.845 390.232 266.861 390.224C266.877 390.216 266.89 390.205 266.901 390.191C266.975 390.23 267.057 390.251 267.141 390.251C267.225 390.251 267.307 390.232 267.382 390.193C267.456 390.155 267.52 390.1 267.569 390.032C267.617 389.964 267.649 389.885 267.661 389.802C267.936 386.07 268.686 382.11 267.803 378.407C267.29 376.204 265.714 373.593 263.074 374.125ZM266.872 384.029C266.777 385.871 266.597 387.694 266.578 389.536C265.324 387.623 264.168 385.649 263.112 383.62C262.617 382.628 262.189 381.603 261.83 380.553C261.308 378.929 261.156 373.356 265.087 375.967C267.309 377.41 267.024 381.835 266.92 384.029H266.872Z" fill="#263238"/>
<path d="M261.232 399.563C264.081 396.999 265.647 393.296 267.518 390.068C267.553 389.993 267.57 389.911 267.567 389.829C267.565 389.746 267.543 389.665 267.503 389.593C267.463 389.521 267.407 389.459 267.338 389.413C267.27 389.367 267.192 389.337 267.11 389.327C267.11 389.251 267.062 389.185 266.977 389.204C263.045 389.838 259.351 391.499 256.266 394.018C254.5 395.518 252.952 398.414 254.946 400.446C256.94 402.478 259.589 401.073 261.232 399.563ZM257.681 400.057C252.933 400.01 256.209 395.49 257.557 394.436C258.443 393.769 259.372 393.163 260.339 392.622C262.352 391.533 264.418 390.547 266.53 389.669C265.514 391.207 264.631 392.812 263.682 394.417C262.533 396.268 260.282 400.085 257.681 400.057Z" fill="#263238"/>
<path d="M258.497 377.629L230.457 415.449L135.881 349.807L126.756 343.483C126.756 343.483 124.173 345.22 120.29 347.366C114.887 350.348 106.996 354.127 99.9691 355.162C88.2326 356.9 70.5329 356.71 60.6291 343.483C52.292 332.335 54.9317 317.797 54.9317 317.797L67.8267 312.261C67.8267 312.261 98.3454 286.842 118.153 286.072C126.547 285.74 138.768 292.102 150.087 298.749C161.405 305.396 258.497 377.629 258.497 377.629Z" fill="#37474F"/>
<path d="M126.756 343.483C126.756 343.483 124.173 345.22 120.29 347.366C113.415 339.143 98.8582 324.197 98.4499 323.627L126.756 343.483Z" fill="#263238"/>
<path d="M78.9935 303.753C77.1703 305.016 75.4041 306.364 73.6 307.665C71.7958 308.966 70.0107 310.144 68.3205 311.539C66.6303 312.935 64.9875 314.474 63.3828 316.002C62.6041 316.743 61.8255 317.484 61.0754 318.253C60.2836 318.989 59.5503 319.786 58.8819 320.636C58.8249 320.712 58.9389 320.807 59.0148 320.76C59.87 320.151 60.6851 319.488 61.4552 318.775L64.0095 316.601C65.6522 315.205 67.3234 313.856 68.9567 312.451C70.5899 311.046 72.0902 309.545 73.7044 308.14C75.3187 306.735 77.2463 305.234 79.0409 303.81C79.0599 303.782 79.0314 303.725 78.9935 303.753Z" fill="#263238"/>
<path d="M251.917 376.271C250.094 378.236 248.413 380.344 246.713 382.414C245.014 384.484 243.323 386.592 241.643 388.691C238.281 392.888 234.891 397.066 231.587 401.31C229.764 403.646 227.979 405.992 226.288 408.423C226.212 408.527 226.383 408.651 226.478 408.556C230.087 404.577 233.401 400.332 236.753 396.145C240.105 391.957 243.456 387.722 246.761 383.468C248.565 381.142 250.426 378.825 252.078 376.394C252.088 376.373 252.09 376.349 252.084 376.326C252.078 376.303 252.065 376.283 252.046 376.269C252.028 376.254 252.005 376.247 251.981 376.247C251.958 376.248 251.935 376.256 251.917 376.271V376.271Z" fill="#263238"/>
<path d="M180.131 380.392C175.383 376.688 164.719 369.443 159.839 365.968C154.958 362.493 150.134 359.036 145.206 355.675C143.794 354.719 142.373 353.769 140.942 352.826C139.518 351.877 138.037 351.003 136.641 350.025C136.565 349.968 136.489 350.101 136.565 350.158C137.847 351.107 139.053 352.104 140.363 353.054C141.674 354.004 142.756 354.887 143.962 355.779C146.326 357.526 148.71 359.245 151.103 360.973C155.926 364.458 160.798 367.915 165.716 371.285C168.508 373.185 177.111 378.882 179.96 380.686C180.064 380.772 180.273 380.525 180.131 380.392Z" fill="#263238"/>
<path d="M209.785 341.317C205.436 337.719 195.542 330.787 190.965 327.454C186.388 324.121 181.773 320.684 177.139 317.332L163.361 307.38C158.917 304.161 154.483 300.885 149.783 298.037C147.209 296.479 144.57 295.036 141.854 293.735C139.227 292.387 136.489 291.268 133.669 290.393C133.653 290.391 133.637 290.395 133.623 290.403C133.609 290.411 133.598 290.424 133.592 290.439C133.586 290.453 133.584 290.47 133.588 290.485C133.591 290.501 133.6 290.515 133.612 290.526C135.929 291.827 138.36 292.909 140.705 294.163C143.05 295.416 145.31 296.698 147.561 298.056C152.223 300.904 156.629 304.104 161.054 307.285C170.255 313.932 179.428 320.579 188.686 327.055C193.871 330.711 204.202 338.25 209.576 341.602C209.614 341.62 209.656 341.623 209.697 341.613C209.737 341.602 209.772 341.578 209.797 341.545C209.821 341.511 209.833 341.471 209.831 341.429C209.829 341.388 209.813 341.348 209.785 341.317V341.317Z" fill="#263238"/>
<path d="M395.1 296.793C385.814 309.374 376.109 323.969 373.773 339.741C373.765 339.794 373.778 339.848 373.808 339.892C373.839 339.936 373.885 339.966 373.937 339.977C373.989 339.988 374.044 339.978 374.089 339.951C374.135 339.923 374.168 339.878 374.182 339.827C375.251 335.525 376.625 331.304 378.293 327.198C384.399 325.517 390.391 324.131 393.6 318.072C396.866 311.843 396.449 303.715 395.831 296.935C395.784 296.565 395.29 296.555 395.1 296.793Z" fill="#FE4400"/>
<path d="M378.379 327.074C382.557 317.712 387.874 308.311 394.72 300.61C394.768 300.563 394.834 300.61 394.796 300.686C390.334 306.174 386.953 312.147 383.639 318.215C386.716 315.1 390.087 312.299 393.002 308.985C393.059 308.928 393.144 308.985 393.097 309.08C390.248 312.555 387.039 316.325 383.269 318.899C382.262 320.76 381.243 322.627 380.211 324.501C380.458 324.358 380.724 324.235 380.98 324.102C381.028 324.102 381.066 324.15 381.028 324.169C380.734 324.32 380.449 324.472 380.154 324.596C379.67 325.479 379.205 326.362 378.683 327.245C378.588 327.445 378.293 327.274 378.379 327.074Z" fill="#263238"/>
<path d="M381.484 323.798C383.98 322.403 386.365 320.816 388.615 319.05C388.672 319.003 388.767 319.05 388.7 319.136C386.524 321.021 384.137 322.649 381.588 323.988C381.436 324.045 381.37 323.874 381.484 323.798Z" fill="#263238"/>
<path d="M372.7 337.396C372.7 337.441 372.718 337.485 372.75 337.517C372.782 337.549 372.826 337.567 372.871 337.567C372.917 337.567 372.96 337.549 372.992 337.517C373.024 337.485 373.042 337.441 373.042 337.396C373.042 332.202 373.042 326.951 373.118 321.766C374.447 319.079 377.306 317.588 379.29 315.442C380.719 313.866 381.964 312.133 383.003 310.277C385.39 305.841 386.85 300.966 387.295 295.948C387.846 290.393 385.738 272.057 383.392 272.693C382.177 273.025 378.246 282.103 377.211 285.104C375.52 290.046 374.28 295.131 373.507 300.297C371.608 312.546 371.77 325.099 372.7 337.396Z" fill="#FE4400"/>
<path d="M372.662 314.986C372.947 308.415 374.428 301.778 375.815 295.407C377.306 288.532 379.053 282.065 382.595 275.941C382.652 275.827 382.823 275.941 382.766 276.045C380.411 280.81 378.586 285.819 377.325 290.982C377.562 290.611 377.847 290.26 378.094 289.909C378.189 289.776 378.417 289.909 378.322 290.042C378.008 290.6 377.639 291.125 377.22 291.608H377.173C375.957 296.518 375.084 301.541 374.324 306.545L374.495 306.355C374.495 306.307 374.599 306.355 374.571 306.412L374.267 306.906C373.897 309.45 373.545 311.986 373.194 314.502C377.723 310.637 381.588 306.07 383.772 300.449C381.636 306.279 378.265 311.454 373.08 314.996C372.998 315.667 372.903 316.341 372.795 317.018C372.795 317.161 372.558 317.123 372.558 317.018C372.558 316.42 372.558 315.822 372.615 315.214C372.599 315.198 372.588 315.177 372.582 315.155C372.576 315.133 372.575 315.11 372.58 315.088C372.584 315.066 372.594 315.045 372.609 315.027C372.623 315.009 372.641 314.995 372.662 314.986V314.986Z" fill="#263238"/>
<path d="M374.789 305.462C378.326 300.461 381.414 295.158 384.019 289.614C384.019 289.548 384.152 289.614 384.123 289.614C382.057 295.442 378.956 300.849 374.97 305.576C374.884 305.69 374.723 305.567 374.789 305.462Z" fill="#263238"/>
<path d="M379.395 288.304C380.819 285.769 382.338 283.3 383.687 280.707C383.687 280.641 383.82 280.707 383.791 280.774C382.684 283.471 381.283 286.038 379.613 288.427C379.597 288.456 379.569 288.478 379.537 288.486C379.505 288.495 379.471 288.491 379.442 288.475C379.413 288.458 379.392 288.431 379.383 288.399C379.374 288.367 379.378 288.333 379.395 288.304Z" fill="#263238"/>
<path d="M369.177 322.374C369.11 325.817 368.706 329.245 367.972 332.61C368.019 332.98 368.076 333.351 368.133 333.731C369.192 330.018 369.804 326.193 369.956 322.336C369.989 322.283 370.006 322.222 370.006 322.16C370.006 322.098 369.989 322.037 369.956 321.985C370.105 316.809 369.72 311.632 368.807 306.535C367.202 296.983 363.689 287.82 357.023 280.669C356.969 280.621 356.904 280.586 356.834 280.568C356.764 280.549 356.69 280.547 356.619 280.562C356.548 280.576 356.482 280.608 356.425 280.653C356.368 280.698 356.323 280.756 356.292 280.821C353.605 287.649 354.545 295.805 356.833 302.661C358.077 306.354 359.855 309.845 362.113 313.021C364.411 316.202 367.326 318.87 369.177 322.374Z" fill="#FE4400"/>
<path d="M357.83 283.831C364.145 294.077 368.532 306.222 369.073 318.319C369.073 318.528 368.722 318.585 368.693 318.319C368.541 317.237 368.37 316.154 368.199 315.081C365.459 312.655 363.052 309.877 361.04 306.82C361.04 306.763 361.087 306.697 361.125 306.744C363.292 309.413 365.616 311.949 368.086 314.341C367.63 311.672 367.136 309.033 366.462 306.44C366.291 306.25 366.129 306.051 365.968 305.861C365.807 305.671 366.034 305.538 366.148 305.671L366.3 305.833C365.411 302.288 364.311 298.8 363.005 295.387C361.401 293.488 359.606 291.817 358.429 289.51C358.429 289.453 358.476 289.415 358.514 289.462C359.464 290.782 360.366 292.112 361.429 293.336C361.856 293.821 362.322 294.286 362.768 294.751C361.312 291.04 359.585 287.442 357.602 283.983C357.593 283.954 357.593 283.922 357.604 283.893C357.614 283.864 357.633 283.839 357.659 283.821C357.685 283.804 357.715 283.796 357.746 283.798C357.777 283.8 357.807 283.811 357.83 283.831V283.831Z" fill="#263238"/>
<path d="M359.112 296.47C361.154 299.214 363.471 301.835 365.37 304.665C365.427 304.75 365.303 304.836 365.237 304.769C362.817 302.296 360.712 299.535 358.97 296.546C358.913 296.461 359.046 296.385 359.112 296.47Z" fill="#263238"/>
<path d="M365.655 305.301L365.74 305.396C365.807 305.453 365.74 305.548 365.645 305.481L365.56 305.396C365.503 305.339 365.598 305.244 365.655 305.301Z" fill="#263238"/>
<path d="M347.945 303.525C348.693 309.241 350.992 314.643 354.592 319.145C356.082 320.909 357.922 322.345 359.995 323.361C362.331 324.52 364.743 325.849 367.202 326.799C368.35 329.727 369.206 332.761 369.757 335.858C369.833 335.601 369.909 335.326 369.985 335.06C368.437 321.719 359.805 310.315 348.762 302.993C348.675 302.941 348.575 302.914 348.473 302.916C348.371 302.917 348.272 302.948 348.187 303.003C348.102 303.059 348.034 303.137 347.991 303.23C347.948 303.322 347.933 303.424 347.945 303.525Z" fill="#FE4400"/>
<path d="M351.763 307.466C351.687 307.39 351.763 307.257 351.877 307.314C357.941 311.829 362.778 317.79 365.949 324.653C366.025 324.843 365.778 324.995 365.674 324.814C365.161 323.922 364.629 323.039 364.097 322.184C361.572 321.709 359.188 319.934 357.318 318.253C357.261 318.205 357.318 318.129 357.394 318.177C358.356 319.058 359.429 319.811 360.584 320.418C361.61 320.94 362.711 321.272 363.784 321.69C362.835 320.209 361.885 318.785 360.859 317.408C358.13 316.371 355.57 314.934 353.263 313.144C353.197 313.144 353.263 312.973 353.339 313.021C355.615 314.411 357.964 315.679 360.375 316.819C358.837 314.787 357.179 312.85 355.409 311.017C354.545 310.571 353.681 310.115 352.855 309.631C352.843 309.621 352.835 309.608 352.831 309.593C352.828 309.578 352.828 309.563 352.833 309.548C352.838 309.534 352.848 309.522 352.86 309.513C352.872 309.504 352.887 309.498 352.902 309.498C353.593 309.733 354.254 310.052 354.868 310.447C353.899 309.431 352.864 308.434 351.763 307.466Z" fill="#263238"/>
<path d="M352 312.071C352.149 312.158 352.289 312.26 352.418 312.375C352.465 312.375 352.418 312.461 352.37 312.442C352.215 312.372 352.065 312.29 351.924 312.195C351.913 312.182 351.907 312.167 351.906 312.151C351.904 312.135 351.908 312.119 351.917 312.105C351.925 312.091 351.938 312.081 351.953 312.074C351.968 312.068 351.984 312.067 352 312.071V312.071Z" fill="#263238"/>
<path d="M387.229 364.753H356.976L359.416 337.196L359.957 331.119H384.247L384.788 337.196L387.229 364.753Z" fill="#455A64"/>
<path d="M384.788 337.196H359.416L359.957 331.119H384.247L384.788 337.196Z" fill="#263238"/>
<path d="M385.7 326.875H358.504V332.885H385.7V326.875Z" fill="#455A64"/>
</svg>
